# 3ds Max Wavefront OBJ Exporter v0.97b - (c)2007 guruware
# File Created: 26.08.2018 16:37:52

mtllib Gravestone.mtl

#
# object Stone
#

v  0.5890 1.5518 0.1983
v  0.5571 1.4555 -0.1076
v  0.5877 1.6477 -0.0918
v  0.5847 1.6395 0.2002
v  0.5648 1.7260 0.1992
v  0.5551 1.7304 -0.1070
v  0.5325 1.8079 0.1975
v  0.5242 1.8087 -0.1085
v  0.4886 1.8840 0.1953
v  0.4823 1.8815 -0.1106
v  0.4339 1.9530 0.1926
v  0.4300 1.9474 -0.1132
v  0.3690 2.0135 0.1893
v  0.3680 2.0052 -0.1163
v  0.2948 2.0643 0.1856
v  0.2970 2.0538 -0.1199
v  0.2137 2.1033 0.1816
v  0.2195 2.0910 -0.1238
v  0.1290 2.1291 0.1773
v  0.1385 2.1159 -0.1279
v  0.0553 2.1282 -0.1320
v  0.0419 2.1402 0.1729
v  -0.0286 2.1271 -0.1362
v  -0.0458 2.1366 0.1685
v  -0.1118 2.1127 -0.1404
v  -0.1328 2.1190 0.1642
v  -0.1928 2.0855 -0.1445
v  -0.2176 2.0884 0.1599
v  -0.2703 2.0464 -0.1484
v  -0.2987 2.0457 0.1558
v  -0.3598 1.9950 0.0259
v  -0.4108 1.9386 -0.0879
v  -0.4378 1.9344 0.1489
v  -0.3729 1.9935 0.1521
v  -0.4925 1.8690 0.1461
v  -0.4556 1.8755 -0.1577
v  -0.4329 1.9035 -0.1565
v  -0.4975 1.8050 -0.1598
v  -0.5364 1.7974 0.1439
v  -0.5484 1.7288 -0.1613
v  -0.5887 1.7201 0.1423
v  -0.5474 1.6475 -0.1623
v  -0.6086 1.6373 0.1413
v  -0.5570 1.5638 -0.1609
v  -0.5976 1.5515 0.1428
v  -0.6029 -0.0065 -0.1343
v  -0.6291 -0.0064 0.1709
v  0.5593 -0.0064 0.1709
v  0.5331 -0.0065 -0.1343
v  0.4891 -0.0064 0.2411
v  0.5134 1.5513 0.2626
v  -0.5331 1.5508 0.2175
v  -0.5589 -0.0064 0.2411
v  0.4270 1.8444 0.2625
v  0.3788 1.9052 0.2601
v  0.3216 1.9585 0.2572
v  0.4657 1.7773 0.2645
v  0.2561 2.0033 0.2540
v  0.1846 2.0377 0.2504
v  0.1099 2.0602 0.2466
v  0.0332 2.0695 0.2428
v  -0.0441 2.0660 0.2389
v  -0.1208 2.0505 0.2351
v  -0.1955 2.0236 0.2313
v  -0.2670 1.9862 0.2277
v  -0.3325 1.9403 0.2244
v  -0.3897 1.8881 0.2216
v  -0.4379 1.8302 0.2191
v  -0.4766 1.7670 0.2172
v  -0.5050 1.6989 0.2158
v  0.4941 1.7051 0.2659
v  -0.5240 1.6276 0.2161
v  0.5099 1.6305 0.2653
v  0.4940 1.4509 -0.1806
v  0.5112 1.6357 -0.1794
v  0.4944 1.7086 -0.1803
v  0.4672 1.7777 -0.1817
v  0.4303 1.8418 -0.1835
v  0.3841 1.8999 -0.1858
v  0.3295 1.9509 -0.1886
v  0.2669 1.9937 -0.1917
v  0.1986 2.0265 -0.1951
v  0.1272 2.0484 -0.1987
v  0.0539 2.0594 -0.2024
v  -0.0201 2.0591 -0.2061
v  -0.0934 2.0471 -0.2098
v  -0.1648 2.0240 -0.2134
v  -0.2332 1.9900 -0.2168
v  -0.2787 1.9586 -0.2191
v  -0.2863 2.0353 -0.1492
v  -0.3798 1.8597 -0.2241
v  -0.3965 1.8390 -0.2250
v  -0.4335 1.7761 -0.2268
v  -0.4607 1.7082 -0.2282
v  -0.4775 1.6357 -0.2290
v  -0.5062 1.5591 -0.2280
v  -0.5358 -0.0083 -0.2045
v  0.4660 -0.0083 -0.2045
v  -0.3034 1.8562 -0.2135
v  -0.2967 1.8703 -0.2133
v  -0.3478 2.0036 0.0300
v  -0.2863 2.0354 -0.1491
# 102 vertices

vn 0.9936 0.0245 -0.1104
vn 0.9962 -0.0539 -0.0686
vn 0.9945 0.1048 -0.0066
vn 0.9946 0.0990 -0.0301
vn 0.9516 0.3074 -0.0073
vn 0.9309 0.3645 -0.0243
vn 0.9015 0.4321 -0.0233
vn 0.9001 0.4351 -0.0232
vn 0.8280 0.5603 -0.0219
vn 0.8263 0.5628 -0.0219
vn 0.7360 0.6767 -0.0219
vn 0.7341 0.6787 -0.0219
vn 0.6266 0.7790 -0.0233
vn 0.6248 0.7805 -0.0233
vn 0.5021 0.8644 -0.0261
vn 0.5005 0.8654 -0.0262
vn 0.3654 0.9303 -0.0304
vn 0.3647 0.9306 -0.0302
vn 0.2119 0.9766 -0.0360
vn 0.2199 0.9750 -0.0330
vn 0.0661 0.9973 -0.0329
vn 0.0466 0.9981 -0.0395
vn -0.0931 0.9951 -0.0328
vn -0.1157 0.9925 -0.0405
vn -0.2449 0.9689 -0.0343
vn -0.2658 0.9631 -0.0415
vn -0.3836 0.9227 -0.0379
vn -0.4005 0.9152 -0.0439
vn -0.5086 0.8598 -0.0450
vn -0.5190 0.8534 -0.0479
vn -0.6376 0.7681 -0.0586
vn -0.7493 0.6579 -0.0756
vn -0.7205 0.6900 -0.0692
vn -0.6246 0.7790 -0.0557
vn -0.8096 0.5808 -0.0847
vn -0.8123 0.5768 -0.0866
vn -0.7722 0.6310 -0.0747
vn -0.8413 0.5321 -0.0951
vn -0.8362 0.5407 -0.0921
vn -0.9388 0.3130 -0.1439
vn -0.9121 0.3953 -0.1090
vn -0.9850 0.0286 -0.1704
vn -0.9849 0.0285 -0.1707
vn -0.9897 0.0670 -0.1267
vn -0.9866 -0.0332 -0.1594
vn -0.9960 0.0276 -0.0855
vn -0.9955 0.0264 -0.0912
vn 0.9962 -0.0174 -0.0855
vn 0.9960 -0.0171 -0.0872
vn 0.0000 -0.0138 0.9999
vn -0.0369 -0.0141 0.9992
vn -0.0430 0.0197 0.9989
vn -0.0162 -0.0026 0.9999
vn -0.0501 0.0000 0.9987
vn -0.0502 0.0108 0.9987
vn -0.0486 -0.0103 0.9988
vn -0.0462 0.0189 0.9988
vn -0.0474 -0.0281 0.9985
vn 0.6466 0.0821 0.7584
vn 0.6545 0.0745 0.7524
vn 0.6506 -0.0057 0.7594
vn 0.6497 -0.0033 0.7602
vn 0.6353 0.2031 0.7450
vn 0.6419 0.1966 0.7411
vn 0.5997 0.3069 0.7391
vn 0.5475 0.3973 0.7364
vn 0.4824 0.4793 0.7332
vn 0.4050 0.5514 0.7293
vn 0.3171 0.6115 0.7249
vn 0.2197 0.6577 0.7205
vn 0.2207 0.6579 0.7201
vn 0.1089 0.6889 0.7166
vn 0.1117 0.6895 0.7156
vn -0.0057 0.7036 0.7105
vn -0.0093 0.7028 0.7113
vn -0.1193 0.7001 0.7040
vn -0.1223 0.6994 0.7042
vn -0.2247 0.6815 0.6965
vn -0.2268 0.6810 0.6962
vn -0.3203 0.6501 0.6890
vn -0.3213 0.6501 0.6885
vn -0.4054 0.6081 0.6826
vn -0.4054 0.6086 0.6821
vn -0.4798 0.5568 0.6781
vn -0.4804 0.5563 0.6780
vn -0.5476 0.4924 0.6765
vn -0.5484 0.4920 0.6762
vn -0.6096 0.4142 0.6759
vn -0.6105 0.4134 0.6756
vn -0.6273 0.3417 0.6998
vn -0.6285 0.3884 0.6739
vn -0.6221 0.2010 0.7567
vn -0.6286 0.2319 0.7424
vn -0.6809 0.1013 0.7253
vn -0.6545 0.0453 0.7547
vn -0.7294 0.0101 0.6840
vn -0.7543 0.0647 0.6533
vn -0.7069 0.0224 0.7069
vn -0.7090 0.0226 0.7048
vn 0.7046 -0.0256 0.7092
vn 0.7069 -0.0259 0.7069
vn 0.7568 -0.0365 -0.6527
vn 0.7561 -0.0316 -0.6537
vn 0.7498 0.0436 -0.6602
vn 0.7501 0.0494 -0.6595
vn 0.7194 0.2138 -0.6608
vn 0.7205 0.2140 -0.6596
vn 0.6809 0.3114 -0.6629
vn 0.6804 0.3125 -0.6629
vn 0.6270 0.4028 -0.6668
vn 0.6264 0.4037 -0.6668
vn 0.5601 0.4854 -0.6713
vn 0.5595 0.4861 -0.6713
vn 0.4812 0.5578 -0.6762
vn 0.4806 0.5583 -0.6763
vn 0.3919 0.6181 -0.6815
vn 0.3913 0.6184 -0.6815
vn 0.2946 0.6643 -0.6870
vn 0.2942 0.6644 -0.6870
vn 0.1924 0.6953 -0.6925
vn 0.1921 0.6954 -0.6925
vn 0.0864 0.7110 -0.6978
vn 0.0844 0.7123 -0.6968
vn -0.0259 0.7135 -0.7002
vn -0.0295 0.7154 -0.6980
vn -0.1369 0.7005 -0.7005
vn -0.1405 0.7019 -0.6982
vn -0.2409 0.6717 -0.7005
vn -0.2441 0.6725 -0.6987
vn -0.3366 0.6281 -0.7016
vn -0.3388 0.6275 -0.7010
vn -0.3807 0.6019 -0.7020
vn -0.3817 0.6010 -0.7022
vn -0.5294 0.4592 -0.7134
vn -0.5312 0.4577 -0.7130
vn -0.5611 0.4144 -0.7166
vn -0.5599 0.4146 -0.7174
vn -0.6133 0.3200 -0.7221
vn -0.5730 0.3470 -0.7425
vn -0.5815 0.2309 -0.7801
vn -0.5888 0.2079 -0.7811
vn -0.6393 0.1569 -0.7528
vn -0.7110 0.0750 -0.6992
vn -0.7604 0.0898 -0.6433
vn -0.7939 0.0434 -0.6065
vn -0.7254 0.0093 -0.6883
vn -0.7227 0.0094 -0.6911
vn 0.7243 -0.0024 -0.6895
vn 0.7229 -0.0025 -0.6909
vn 0.0692 -0.0579 -0.9959
vn 0.0501 0.0000 -0.9987
vn 0.0486 -0.0007 -0.9988
vn 0.0449 -0.0053 -0.9990
vn 0.0599 -0.0050 -0.9982
vn 0.0547 0.0011 -0.9985
vn 0.0186 0.0040 -0.9998
vn 0.0179 0.0050 -0.9998
vn 0.0000 0.0164 -0.9999
vn 0.0979 -0.0179 -0.9950
vn 0.0054 -0.0151 -0.9999
vn 0.1313 -0.0525 -0.9900
vn -0.3173 0.6075 -0.7282
vn -0.5438 0.2653 -0.7962
vn 0.1099 -0.0871 -0.9901
vn -0.5714 0.8191 -0.0511
vn -0.5682 0.8214 -0.0498
vn -0.9406 0.1729 -0.2924
vn -0.6954 0.2979 -0.6540
vn -0.8475 0.2491 -0.4686
vn -0.9353 0.1920 -0.2973
vn -0.9380 0.1929 -0.2879
vn 0.0914 0.8707 -0.4832
vn 0.1065 0.8709 -0.4797
vn -0.2616 0.8070 -0.5294
vn -0.3662 0.7650 -0.5297
# 175 vertex normals

vt 0.0229 0.3212 0.0000
vt 0.0856 0.3008 0.0000
vt 0.0815 0.3398 0.0000
vt 0.0227 0.3381 0.0000
vt 0.0229 0.3551 0.0000
vt 0.0853 0.3568 0.0000
vt 0.0232 0.3720 0.0000
vt 0.0856 0.3733 0.0000
vt 0.0235 0.3889 0.0000
vt 0.0858 0.3898 0.0000
vt 0.0239 0.4058 0.0000
vt 0.0861 0.4065 0.0000
vt 0.0242 0.4230 0.0000
vt 0.0865 0.4231 0.0000
vt 0.0247 0.4405 0.0000
vt 0.0869 0.4399 0.0000
vt 0.0252 0.4580 0.0000
vt 0.0875 0.4567 0.0000
vt 0.0259 0.4752 0.0000
vt 0.0881 0.4732 0.0000
vt 0.0888 0.4895 0.0000
vt 0.0266 0.4922 0.0000
vt 0.0895 0.5058 0.0000
vt 0.0275 0.5093 0.0000
vt 0.0904 0.5222 0.0000
vt 0.0284 0.5267 0.0000
vt 0.0914 0.5389 0.0000
vt 0.0296 0.5444 0.0000
vt 0.0928 0.5559 0.0000
vt 0.0309 0.5626 0.0000
vt 0.0579 0.5780 0.0000
vt 0.0809 0.5940 0.0000
vt 0.0325 0.5977 0.0000
vt 0.0320 0.5806 0.0000
vt 0.0324 0.6144 0.0000
vt 0.0947 0.6103 0.0000
vt 0.0951 0.6030 0.0000
vt 0.0946 0.6268 0.0000
vt 0.0319 0.6307 0.0000
vt 0.0934 0.6446 0.0000
vt 0.0324 0.6485 0.0000
vt 0.0952 0.6603 0.0000
vt 0.0325 0.6643 0.0000
vt 0.0947 0.6771 0.0000
vt 0.0317 0.6808 0.0000
vt 0.0927 0.9970 0.0000
vt 0.0303 0.9980 0.0000
vt 0.0223 0.0040 0.0000
vt 0.0847 0.0028 0.0000
vt 0.1262 0.0069 0.0000
vt 0.4430 0.0020 0.0000
vt 0.4429 0.2148 0.0000
vt 0.1262 0.2200 0.0000
vt 0.5026 0.0196 0.0000
vt 0.5149 0.0294 0.0000
vt 0.5258 0.0410 0.0000
vt 0.4889 0.0117 0.0000
vt 0.5349 0.0543 0.0000
vt 0.5419 0.0689 0.0000
vt 0.5464 0.0840 0.0000
vt 0.5483 0.0996 0.0000
vt 0.5476 0.1154 0.0000
vt 0.5445 0.1310 0.0000
vt 0.5390 0.1462 0.0000
vt 0.5314 0.1607 0.0000
vt 0.5221 0.1740 0.0000
vt 0.5114 0.1856 0.0000
vt 0.4997 0.1954 0.0000
vt 0.4868 0.2033 0.0000
vt 0.4730 0.2091 0.0000
vt 0.4742 0.0059 0.0000
vt 0.4585 0.2130 0.0000
vt 0.4591 0.0027 0.0000
vt 0.0026 0.3387 0.0000
vt 0.0026 0.3217 0.0000
vt 0.0027 0.3554 0.0000
vt 0.0030 0.3724 0.0000
vt 0.0033 0.3893 0.0000
vt 0.0036 0.4063 0.0000
vt 0.0040 0.4236 0.0000
vt 0.0045 0.4411 0.0000
vt 0.0050 0.4588 0.0000
vt 0.0057 0.4762 0.0000
vt 0.0064 0.4936 0.0000
vt 0.0073 0.5110 0.0000
vt 0.0084 0.5285 0.0000
vt 0.0096 0.5462 0.0000
vt 0.0109 0.5638 0.0000
vt 0.0119 0.5810 0.0000
vt 0.0123 0.5975 0.0000
vt 0.0122 0.6136 0.0000
vt 0.0114 0.6297 0.0000
vt 0.0100 0.6463 0.0000
vt 0.0100 0.6635 0.0000
vt 0.0111 0.6804 0.0000
vt 0.0100 0.9979 0.0000
vt 0.0020 0.0040 0.0000
vt 0.1055 0.2994 0.0000
vt 0.1047 0.3385 0.0000
vt 0.1053 0.3558 0.0000
vt 0.1055 0.3726 0.0000
vt 0.1058 0.3891 0.0000
vt 0.1061 0.4057 0.0000
vt 0.1065 0.4223 0.0000
vt 0.1069 0.4391 0.0000
vt 0.1075 0.4558 0.0000
vt 0.1081 0.4723 0.0000
vt 0.1087 0.4887 0.0000
vt 0.1094 0.5050 0.0000
vt 0.1101 0.5212 0.0000
vt 0.1109 0.5373 0.0000
vt 0.1122 0.5532 0.0000
vt 0.1141 0.5643 0.0000
vt 0.0932 0.5597 0.0000
vt 0.1148 0.6059 0.0000
vt 0.1144 0.6114 0.0000
vt 0.1146 0.6268 0.0000
vt 0.1153 0.6433 0.0000
vt 0.1152 0.6600 0.0000
vt 0.1120 0.6772 0.0000
vt 0.1124 0.9968 0.0000
vt 0.1045 0.0020 0.0000
vt 0.1425 0.3882 0.0000
vt 0.1351 0.3746 0.0000
vt 0.1298 0.3602 0.0000
vt 0.1262 0.3304 0.0000
vt 0.1269 0.3454 0.0000
vt 0.1279 0.3154 0.0000
vt 0.1318 0.3007 0.0000
vt 0.1462 0.2736 0.0000
vt 0.1380 0.2866 0.0000
vt 0.1561 0.2621 0.0000
vt 0.1676 0.2522 0.0000
vt 0.1942 0.2382 0.0000
vt 0.1803 0.2442 0.0000
vt 0.1875 0.4273 0.0000
vt 0.2089 0.2342 0.0000
vt 0.2465 0.2363 0.0000
vt 0.5509 0.4345 0.0000
vt 0.5433 0.2309 0.0000
vt 0.2164 0.4351 0.0000
vt 0.2321 0.4404 0.0000
vt 0.2015 0.4323 0.0000
vt 0.1744 0.4202 0.0000
vt 0.1701 0.4170 0.0000
vt 0.1702 0.4014 0.0000
vt 0.1673 0.4002 0.0000
vt 0.1493 0.3972 0.0000
vt 0.0570 0.5749 0.0000
vt 0.6066 0.0081 0.0000
vt 0.6147 0.0238 0.0000
vt 0.6161 0.0262 0.0000
vt 0.5868 0.0020 0.0000
vt 0.5592 0.0258 0.0000
vt 0.6153 0.0439 0.0000
vt 0.5977 0.0530 0.0000
vt 0.5597 0.0286 0.0000
vt 0.5831 0.0451 0.0000
# 158 texture coords

g Stone
usemtl _GravestoneStone
s 1
f 1/1/1 2/2/2 3/3/3 4/4/4 
f 5/5/5 4/4/4 3/3/3 6/6/6 
f 7/7/7 5/5/5 6/6/6 8/8/8 
f 9/9/9 7/7/7 8/8/8 10/10/10 
f 11/11/11 9/9/9 10/10/10 12/12/12 
f 13/13/13 11/11/11 12/12/12 14/14/14 
f 15/15/15 13/13/13 14/14/14 16/16/16 
f 17/17/17 15/15/15 16/16/16 18/18/18 
f 19/19/19 17/17/17 18/18/18 20/20/20 
f 19/19/19 20/20/20 21/21/21 22/22/22 
f 22/22/22 21/21/21 23/23/23 24/24/24 
f 24/24/24 23/23/23 25/25/25 26/26/26 
f 26/26/26 25/25/25 27/27/27 28/28/28 
f 28/28/28 27/27/27 29/29/29 30/30/30 
f 31/31/31 32/32/32 33/33/33 34/34/34 
f 35/35/35 33/33/33 32/32/32 36/36/36 
f 37/37/37 36/36/36 32/32/32 
f 35/35/35 36/36/36 38/38/38 39/39/39 
f 39/39/39 38/38/38 40/40/40 41/41/41 
f 41/41/41 40/40/40 42/42/42 43/43/43 
f 43/43/43 42/42/42 44/44/44 45/45/45 
f 45/45/45 44/44/44 46/46/46 47/47/47 
f 48/48/48 49/49/49 2/2/2 1/1/1 
f 50/50/50 51/51/51 52/52/52 53/53/53 
f 54/54/54 55/55/54 56/56/54 57/57/54 
f 56/56/54 58/58/54 59/59/54 57/57/54 
f 59/59/54 60/60/54 61/61/54 57/57/54 
f 61/61/54 62/62/54 63/63/54 57/57/54 
f 63/63/54 64/64/54 65/65/54 57/57/54 
f 65/65/54 66/66/54 67/67/54 57/57/54 
f 67/67/54 68/68/54 69/69/54 57/57/54 
f 57/57/54 69/69/54 70/70/55 71/71/56 
f 70/70/55 72/72/57 73/73/58 71/71/56 
f 51/51/51 73/73/58 72/72/57 52/52/52 
s 4
f 4/4/59 73/74/60 51/75/61 1/1/62 
f 5/5/63 71/76/64 73/74/60 4/4/59 
f 57/77/65 71/76/64 5/5/63 7/7/65 
f 54/78/66 57/77/65 7/7/65 9/9/66 
f 55/79/67 54/78/66 9/9/66 11/11/67 
f 56/80/68 55/79/67 11/11/67 13/13/68 
f 58/81/69 56/80/68 13/13/68 15/15/69 
f 59/82/70 58/81/69 15/15/69 17/17/71 
f 60/83/72 59/82/70 17/17/71 19/19/73 
f 22/22/74 61/84/75 60/83/72 19/19/73 
f 24/24/76 62/85/77 61/84/75 22/22/74 
f 26/26/78 63/86/79 62/85/77 24/24/76 
f 28/28/80 64/87/81 63/86/79 26/26/78 
f 30/30/82 65/88/83 64/87/81 28/28/80 
f 66/89/84 65/88/83 30/30/82 34/34/85 
f 67/90/86 66/89/84 34/34/85 33/33/87 
f 68/91/88 67/90/86 33/33/87 35/35/89 
f 69/92/90 68/91/88 35/35/89 39/39/91 
f 70/93/92 69/92/90 39/39/91 41/41/93 
f 72/94/94 70/93/92 41/41/93 43/43/95 
f 45/45/96 52/95/97 72/94/94 43/43/95 
f 53/96/98 52/95/97 45/45/96 47/47/99 
f 51/75/61 50/97/100 48/48/101 1/1/62 
f 2/2/102 74/98/103 75/99/104 3/3/105 
f 75/99/104 76/100/106 6/6/107 3/3/105 
f 6/6/107 76/100/106 77/101/108 8/8/109 
f 8/8/109 77/101/108 78/102/110 10/10/111 
f 10/10/111 78/102/110 79/103/112 12/12/113 
f 12/12/113 79/103/112 80/104/114 14/14/115 
f 14/14/115 80/104/114 81/105/116 16/16/117 
f 16/16/117 81/105/116 82/106/118 18/18/119 
f 82/106/118 83/107/120 20/20/121 18/18/119 
f 83/107/120 84/108/122 21/21/123 20/20/121 
f 84/108/122 85/109/124 23/23/125 21/21/123 
f 85/109/124 86/110/126 25/25/127 23/23/125 
f 86/110/126 87/111/128 27/27/129 25/25/127 
f 87/111/128 88/112/130 29/29/131 27/27/129 
f 88/112/130 89/113/132 90/114/133 29/29/131 
f 37/37/134 91/115/135 92/116/136 36/36/137 
f 36/36/137 92/116/136 93/117/138 38/38/139 
f 38/38/139 93/117/138 94/118/140 40/40/141 
f 94/118/140 95/119/142 42/42/143 40/40/141 
f 42/42/143 95/119/142 96/120/144 44/44/145 
f 96/120/144 97/121/146 46/46/147 44/44/145 
f 49/49/148 98/122/149 74/98/103 2/2/102 
s 1
f 88/123/150 87/124/151 86/125/151 84/126/152 
f 86/125/151 85/127/151 84/126/152 
f 84/126/152 83/128/151 82/129/151 80/130/151 
f 82/129/151 81/131/151 80/130/151 
f 80/130/151 79/132/151 78/133/151 76/134/153 
f 78/133/151 77/135/151 76/134/153 
f 84/126/152 80/130/151 76/134/153 93/136/154 
f 76/134/153 75/137/155 74/138/156 97/139/157 
f 74/138/156 98/140/158 97/139/157 
f 95/141/159 93/136/154 97/139/157 96/142/160 
f 95/141/159 94/143/151 93/136/154 
f 76/134/153 97/139/157 93/136/154 
f 92/144/151 91/145/161 99/146/162 93/136/154 
f 99/146/162 88/123/150 84/126/152 93/136/154 
f 100/147/163 89/148/164 88/123/150 99/146/162 
f 34/34/34 30/30/30 101/149/165 31/31/31 
f 101/149/165 30/30/30 29/29/29 90/114/166 
s 16
f 89/150/167 100/151/168 99/152/169 102/153/170 
f 101/154/171 102/153/170 99/152/169 
s 2
f 99/152/172 91/155/173 37/156/173 31/157/174 
f 31/157/174 37/156/173 32/158/173 
f 31/157/174 101/154/175 99/152/172 
# 91 polygons - 10 triangles

