# 3ds Max Wavefront OBJ Exporter v0.97b - (c)2007 guruware
# File Created: 26.08.2018 10:58:28

mtllib Column.mtl

#
# object Column
#

v  -0.4584 0.0000 -0.4512
v  0.4535 0.0000 -0.4512
v  0.4535 0.0000 0.4607
v  -0.4584 0.0000 0.4607
v  0.4535 0.4309 0.4607
v  -0.4584 0.4309 0.4607
v  0.4535 0.4309 -0.4512
v  -0.4584 0.4309 -0.4512
v  0.2889 0.6851 0.2490
v  -0.1996 0.6851 0.2490
v  0.2889 0.6851 -0.2395
v  -0.1996 0.6851 -0.2395
v  0.3521 0.7489 0.3122
v  -0.2628 0.7489 0.3122
v  0.3521 0.7489 -0.3027
v  -0.2628 0.7489 -0.3027
v  0.2903 0.8126 0.2504
v  -0.2010 0.8126 0.2504
v  0.2903 0.8126 -0.2409
v  -0.2010 0.8126 -0.2409
v  0.3359 2.6098 0.3041
v  -0.3019 2.6098 0.3431
v  0.2969 2.6098 -0.3337
v  -0.3409 2.6098 -0.2947
v  0.3853 2.7177 0.3478
v  -0.3455 2.7177 0.3925
v  0.3406 2.7177 -0.3830
v  -0.3902 2.7177 -0.3384
v  0.3193 2.8256 0.2894
v  -0.2871 2.8256 0.3264
v  0.2822 2.8256 -0.3170
v  -0.3242 2.8256 -0.2799
v  0.4282 3.7543 0.4848
v  -0.4761 3.7089 0.4308
v  0.4822 3.7543 -0.4207
v  -0.4220 3.7089 -0.4747
v  0.4851 3.8277 0.5532
v  -0.5485 3.7759 0.4915
v  0.5469 3.8277 -0.4818
v  -0.4867 3.7759 -0.5436
v  0.0039 3.9551 0.0193
v  -0.0243 3.9537 0.0176
v  0.0056 3.9551 -0.0089
v  -0.0226 3.9537 -0.0106
v  0.0141 3.9772 0.0321
v  -0.0384 3.9746 0.0289
v  0.0172 3.9772 -0.0204
v  -0.0352 3.9746 -0.0236
v  -0.0021 4.2091 0.0300
v  -0.0467 4.1880 0.0270
v  0.0006 4.2102 -0.0200
v  -0.0440 4.1891 -0.0229
v  -0.1578 4.3618 0.0246
v  -0.1992 4.3676 0.0221
v  -0.1554 4.3613 -0.0172
v  -0.1968 4.3671 -0.0197
v  -0.0190 4.5305 0.0186
v  -0.0495 4.5407 0.0167
v  -0.0172 4.5298 -0.0138
v  -0.0477 4.5400 -0.0157
v  -0.0044 4.7330 0.0180
v  -0.0376 4.7313 0.0160
v  -0.0024 4.7330 -0.0152
v  -0.0356 4.7313 -0.0172
v  0.0275 4.7617 0.0578
v  -0.0811 4.7563 0.0513
v  0.0339 4.7617 -0.0509
v  -0.0747 4.7563 -0.0574
v  -0.0207 4.9282 -0.0057
# 69 vertices

vn 0.0000 -1.0000 -0.0000
vn 0.0000 0.0000 1.0000
vn 1.0000 0.0000 -0.0000
vn 0.0000 0.0000 -1.0000
vn -1.0000 0.0000 -0.0000
vn 0.0000 0.6184 0.7858
vn 0.8530 0.5219 -0.0000
vn 0.0000 0.6184 -0.7858
vn -0.7206 0.6933 -0.0000
vn 0.0000 -0.6835 0.7299
vn 0.7299 -0.6835 -0.0000
vn 0.0000 -0.6835 -0.7299
vn -0.7299 -0.6835 -0.0000
vn 0.0000 0.6751 0.7377
vn 0.7377 0.6751 -0.0000
vn 0.0000 0.6751 -0.7377
vn -0.7377 0.6751 -0.0000
vn 0.0345 -0.0380 0.9987
vn 0.9993 -0.0141 -0.0345
vn -0.0345 -0.0397 -0.9986
vn -0.9974 -0.0635 0.0344
vn 0.0565 -0.3780 0.9241
vn 0.9241 -0.3780 -0.0565
vn -0.0565 -0.3780 -0.9241
vn -0.9241 -0.3780 0.0565
vn 0.0536 0.4794 0.8759
vn 0.8759 0.4794 -0.0536
vn -0.0536 0.4794 -0.8759
vn -0.8759 0.4794 0.0536
vn -0.0062 -0.1547 0.9879
vn 0.9877 -0.1558 0.0111
vn 0.0160 -0.1546 -0.9878
vn -0.9883 -0.1522 -0.0111
vn -0.0102 -0.6566 0.7541
vn 0.7857 -0.6168 0.0469
vn 0.0796 -0.6566 -0.7500
vn -0.7163 -0.6965 -0.0428
vn -0.0685 0.9509 0.3017
vn 0.2540 0.9671 0.0152
vn -0.0321 0.9509 -0.3077
vn -0.3546 0.9348 -0.0212
vn -0.0278 -0.4691 0.8827
vn 0.9048 -0.4225 0.0540
vn 0.0774 -0.4691 -0.8797
vn -0.8552 -0.5158 -0.0511
vn -0.0642 0.0052 0.9979
vn 0.9961 0.0665 0.0578
vn 0.0614 0.0055 -0.9981
vn -0.9976 -0.0380 -0.0576
vn -0.0592 -0.0230 0.9980
vn 0.7169 0.6956 0.0458
vn 0.0515 0.0629 -0.9967
vn -0.7774 -0.6271 -0.0486
vn -0.0454 0.0680 0.9967
vn 0.7889 -0.6121 0.0552
vn 0.0558 -0.0239 -0.9982
vn -0.7737 0.6312 -0.0547
vn -0.0603 0.0068 0.9982
vn 0.9960 -0.0677 0.0580
vn 0.0598 -0.0108 -0.9982
vn -0.9966 0.0589 -0.0580
vn 0.0062 -0.7971 0.6038
vn 0.6632 -0.7474 0.0396
vn 0.0780 -0.7971 -0.5988
vn -0.5371 -0.8429 -0.0321
vn -0.0734 0.3206 0.9444
vn 0.9575 0.2826 0.0572
vn 0.0437 0.2611 -0.9643
vn -0.9527 0.2985 -0.0569
# 69 vertex normals

vt 0.0020 0.8286 0.0000
vt 0.1645 0.8286 0.0000
vt 0.1645 0.9911 0.0000
vt 0.0020 0.9911 0.0000
vt 0.7813 0.1616 0.0000
vt 0.7351 0.2097 0.0000
vt 0.6033 0.1518 0.0000
vt 0.6458 0.0815 0.0000
vt 0.3028 0.0020 0.0000
vt 0.3210 0.0814 0.0000
vt 0.1864 0.0920 0.0000
vt 0.1595 0.0161 0.0000
vt 0.4833 0.0300 0.0000
vt 0.4669 0.1073 0.0000
vt 0.6341 0.2509 0.0000
vt 0.5472 0.2156 0.0000
vt 0.3421 0.1687 0.0000
vt 0.2414 0.1556 0.0000
vt 0.4471 0.1830 0.0000
vt 0.6240 0.2646 0.0000
vt 0.5345 0.2315 0.0000
vt 0.3459 0.1878 0.0000
vt 0.2472 0.1748 0.0000
vt 0.4417 0.2033 0.0000
vt 0.6144 0.2799 0.0000
vt 0.5261 0.2509 0.0000
vt 0.3450 0.2081 0.0000
vt 0.2552 0.1939 0.0000
vt 0.4358 0.2285 0.0000
vt 0.5903 0.5821 0.0000
vt 0.4739 0.5790 0.0000
vt 0.2557 0.5277 0.0000
vt 0.1510 0.4902 0.0000
vt 0.3639 0.5573 0.0000
vt 0.5918 0.6027 0.0000
vt 0.4712 0.6024 0.0000
vt 0.2479 0.5508 0.0000
vt 0.1464 0.5052 0.0000
vt 0.3580 0.5833 0.0000
vt 0.5892 0.6268 0.0000
vt 0.4688 0.6255 0.0000
vt 0.2401 0.5736 0.0000
vt 0.1395 0.5231 0.0000
vt 0.3522 0.6091 0.0000
vt 0.6226 0.7803 0.0000
vt 0.4650 0.7926 0.0000
vt 0.1532 0.7269 0.0000
vt 0.0226 0.6383 0.0000
vt 0.3066 0.7711 0.0000
vt 0.6377 0.7956 0.0000
vt 0.4661 0.8117 0.0000
vt 0.1434 0.7439 0.0000
vt 0.0020 0.6441 0.0000
vt 0.3026 0.7892 0.0000
vt 0.9874 0.2015 0.0000
vt 0.9006 0.1029 0.0000
vt 0.9009 0.0978 0.0000
vt 0.9980 0.0126 0.0000
vt 0.7982 0.1909 0.0000
vt 0.8955 0.1026 0.0000
vt 0.8089 0.0020 0.0000
vt 0.8958 0.0975 0.0000
vt 0.1814 0.8326 0.0000
vt 0.1856 0.8306 0.0000
vt 0.1854 0.8400 0.0000
vt 0.1814 0.8377 0.0000
vt 0.7982 0.2749 0.0000
vt 0.8027 0.2727 0.0000
vt 0.8027 0.2827 0.0000
vt 0.7982 0.2803 0.0000
vt 0.9453 0.2278 0.0000
vt 0.9413 0.2299 0.0000
vt 0.9411 0.2205 0.0000
vt 0.9453 0.2228 0.0000
vt 0.3454 0.8308 0.0000
vt 0.3496 0.8286 0.0000
vt 0.3496 0.8386 0.0000
vt 0.3454 0.8361 0.0000
vt 0.2295 0.8319 0.0000
vt 0.2258 0.8400 0.0000
vt 0.8496 0.2728 0.0000
vt 0.8494 0.2823 0.0000
vt 0.9007 0.2299 0.0000
vt 0.8970 0.2217 0.0000
vt 0.3924 0.8290 0.0000
vt 0.3927 0.8385 0.0000
vt 0.2594 0.8586 0.0000
vt 0.2607 0.8660 0.0000
vt 0.8800 0.2733 0.0000
vt 0.8801 0.2813 0.0000
vt 0.8660 0.2558 0.0000
vt 0.8674 0.2485 0.0000
vt 0.4285 0.8299 0.0000
vt 0.4284 0.8378 0.0000
vt 0.2903 0.8326 0.0000
vt 0.2924 0.8380 0.0000
vt 0.9140 0.2740 0.0000
vt 0.9141 0.2802 0.0000
vt 0.8344 0.2279 0.0000
vt 0.8365 0.2226 0.0000
vt 0.4633 0.8309 0.0000
vt 0.4631 0.8371 0.0000
vt 0.3285 0.8286 0.0000
vt 0.3284 0.8345 0.0000
vt 0.9549 0.2737 0.0000
vt 0.9549 0.2800 0.0000
vt 0.7983 0.2244 0.0000
vt 0.7982 0.2184 0.0000
vt 0.5016 0.8311 0.0000
vt 0.5016 0.8374 0.0000
vt 0.1899 0.9341 0.0000
vt 0.1965 0.9340 0.0000
vt 0.2034 0.9414 0.0000
vt 0.1817 0.9418 0.0000
vt 0.1964 0.9274 0.0000
vt 0.2031 0.9197 0.0000
vt 0.1898 0.9275 0.0000
vt 0.1814 0.9201 0.0000
vt 0.1818 0.9028 0.0000
vt 0.1814 0.8829 0.0000
vt 0.2142 0.8892 0.0000
vt 0.3454 0.8753 0.0000
vt 0.3454 0.8555 0.0000
vt 0.3774 0.8637 0.0000
vt 0.8306 0.2996 0.0000
vt 0.8308 0.3194 0.0000
vt 0.7982 0.3083 0.0000
vt 0.9622 0.2383 0.0000
vt 0.9622 0.2184 0.0000
vt 0.9954 0.2288 0.0000
# 130 texture coords

g Column
usemtl _ColumnColumn
s 2
f 1/1/1 2/2/1 3/3/1 4/4/1 
s 8
f 3/5/2 5/6/2 6/7/2 4/8/2 
s 16
f 2/9/3 7/10/3 5/11/3 3/12/3 
s 32
f 1/13/4 8/14/4 7/10/4 2/9/4 
s 64
f 4/8/5 6/7/5 8/14/5 1/13/5 
s off
f 5/6/6 9/15/6 10/16/6 6/7/6 
f 7/10/7 11/17/7 9/18/7 5/11/7 
f 7/10/8 8/14/8 12/19/8 11/17/8 
f 6/7/9 10/16/9 12/19/9 8/14/9 
f 9/15/10 13/20/10 14/21/10 10/16/10 
f 11/17/11 15/22/11 13/23/11 9/18/11 
f 12/19/12 16/24/12 15/22/12 11/17/12 
f 10/16/13 14/21/13 16/24/13 12/19/13 
f 13/20/14 17/25/14 18/26/14 14/21/14 
f 15/22/15 19/27/15 17/28/15 13/23/15 
f 16/24/16 20/29/16 19/27/16 15/22/16 
f 14/21/17 18/26/17 20/29/17 16/24/17 
f 18/26/18 17/25/18 21/30/18 22/31/18 
f 19/27/19 23/32/19 21/33/19 17/28/19 
f 20/29/20 24/34/20 23/32/20 19/27/20 
f 18/26/21 22/31/21 24/34/21 20/29/21 
f 21/30/22 25/35/22 26/36/22 22/31/22 
f 23/32/23 27/37/23 25/38/23 21/33/23 
f 24/34/24 28/39/24 27/37/24 23/32/24 
f 22/31/25 26/36/25 28/39/25 24/34/25 
f 25/35/26 29/40/26 30/41/26 26/36/26 
f 27/37/27 31/42/27 29/43/27 25/38/27 
f 28/39/28 32/44/28 31/42/28 27/37/28 
f 26/36/29 30/41/29 32/44/29 28/39/29 
f 30/41/30 29/40/30 33/45/30 34/46/30 
f 29/43/31 31/42/31 35/47/31 33/48/31 
f 31/42/32 32/44/32 36/49/32 35/47/32 
f 32/44/33 30/41/33 34/46/33 36/49/33 
f 33/45/34 37/50/34 38/51/34 34/46/34 
f 35/47/35 39/52/35 37/53/35 33/48/35 
f 36/49/36 40/54/36 39/52/36 35/47/36 
f 34/46/37 38/51/37 40/54/37 36/49/37 
f 37/55/38 41/56/38 42/57/38 38/58/38 
f 39/59/39 43/60/39 41/56/39 37/55/39 
f 40/61/40 44/62/40 43/60/40 39/59/40 
f 38/58/41 42/57/41 44/62/41 40/61/41 
f 41/63/42 45/64/42 46/65/42 42/66/42 
f 43/67/43 47/68/43 45/69/43 41/70/43 
f 44/71/44 48/72/44 47/73/44 43/74/44 
f 42/75/45 46/76/45 48/77/45 44/78/45 
f 45/64/46 49/79/46 50/80/46 46/65/46 
f 47/68/47 51/81/47 49/82/47 45/69/47 
f 47/73/48 48/72/48 52/83/48 51/84/48 
f 48/77/49 46/76/49 50/85/49 52/86/49 
f 50/80/50 49/79/50 53/87/50 54/88/50 
f 49/82/51 51/81/51 55/89/51 53/90/51 
f 52/83/52 56/91/52 55/92/52 51/84/52 
f 50/85/53 54/93/53 56/94/53 52/86/53 
f 53/87/54 57/95/54 58/96/54 54/88/54 
f 55/89/55 59/97/55 57/98/55 53/90/55 
f 55/92/56 56/91/56 60/99/56 59/100/56 
f 56/94/57 54/93/57 58/101/57 60/102/57 
f 58/96/58 57/95/58 61/103/58 62/104/58 
f 59/97/59 63/105/59 61/106/59 57/98/59 
f 60/99/60 64/107/60 63/108/60 59/100/60 
f 58/101/61 62/109/61 64/110/61 60/102/61 
f 62/111/62 61/112/62 65/113/62 66/114/62 
f 63/115/63 67/116/63 65/113/63 61/112/63 
f 64/117/64 68/118/64 67/116/64 63/115/64 
f 62/111/65 66/114/65 68/118/65 64/117/65 
f 66/119/66 65/120/66 69/121/66 
f 65/122/67 67/123/67 69/124/67 
f 67/125/68 68/126/68 69/127/68 
f 68/128/69 66/129/69 69/130/69 
# 65 polygons - 4 triangles

