# 3ds Max Wavefront OBJ Exporter v0.97b - (c)2007 guruware
# File Created: 26.08.2018 15:56:50

mtllib Mushroom1.mtl

#
# object Mushroom1
#

v  0.0942 0.1854 -0.0508
v  0.1078 0.1854 0.0002
v  0.1243 0.1318 0.0002
v  0.1084 0.1318 -0.0592
v  0.0569 0.1854 -0.0881
v  0.0649 0.1318 -0.1026
v  0.0059 0.1854 -0.1018
v  0.0056 0.1318 -0.1185
v  -0.0451 0.1854 -0.0881
v  -0.0537 0.1318 -0.1026
v  -0.0824 0.1854 -0.0508
v  -0.0971 0.1318 -0.0592
v  -0.0960 0.1854 0.0002
v  -0.1130 0.1318 0.0002
v  -0.0824 0.1854 0.0511
v  -0.0971 0.1318 0.0595
v  -0.0451 0.1854 0.0885
v  -0.0537 0.1318 0.1029
v  0.0059 0.1854 0.1021
v  0.0056 0.1318 0.1188
v  0.0569 0.1854 0.0885
v  0.0649 0.1318 0.1029
v  0.0942 0.1854 0.0511
v  0.1084 0.1318 0.0595
v  0.1379 0.0574 0.0002
v  0.1202 0.0574 -0.0658
v  0.0719 0.0574 -0.1142
v  0.0059 0.0574 -0.1319
v  -0.0601 0.0574 -0.1142
v  -0.1085 0.0574 -0.0658
v  -0.1262 0.0574 0.0002
v  -0.1085 0.0574 0.0662
v  -0.0601 0.0574 0.1145
v  0.0059 0.0574 0.1322
v  0.0719 0.0574 0.1145
v  0.1202 0.0574 0.0662
v  0.1334 0.0232 0.0002
v  0.1163 0.0232 -0.0636
v  0.0697 0.0232 -0.1103
v  0.0059 0.0232 -0.1274
v  -0.0579 0.0232 -0.1103
v  -0.1046 0.0232 -0.0636
v  -0.1217 0.0232 0.0002
v  -0.1046 0.0232 0.0639
v  -0.0579 0.0232 0.1106
v  0.0059 0.0232 0.1277
v  0.0697 0.0232 0.1106
v  0.1163 0.0232 0.0639
v  0.1202 -0.0087 0.0002
v  0.1049 -0.0087 -0.0570
v  0.0631 -0.0087 -0.0989
v  0.0059 -0.0087 -0.1142
v  -0.0513 -0.0087 -0.0989
v  -0.0931 -0.0087 -0.0570
v  -0.1085 -0.0087 0.0002
v  -0.0931 -0.0087 0.0574
v  -0.0513 -0.0087 0.0992
v  0.0059 -0.0087 0.1145
v  0.0631 -0.0087 0.0992
v  0.1049 -0.0087 0.0574
v  -0.0162 0.3066 0.0547
v  0.0598 0.3045 0.0233
v  0.0284 0.3093 -0.0526
v  -0.0162 0.3095 -0.0526
v  0.0062 0.2896 -0.1063
v  -0.0349 0.2896 -0.0981
v  -0.0702 0.2858 -0.0748
v  -0.0702 0.2852 0.0769
v  0.0027 0.2815 0.1147
v  0.0821 0.2860 0.0769
v  0.1055 0.2868 0.0421
v  0.1130 0.2880 0.0011
v  0.1055 0.2892 -0.0400
v  0.0821 0.2896 -0.0748
v  0.0473 0.2896 -0.0981
v  0.0062 0.2588 -0.1391
v  -0.0475 0.2588 -0.1285
v  -0.0922 0.2631 -0.0981
v  -0.1214 0.2584 -0.0526
v  -0.1314 0.2546 0.0011
v  -0.1214 0.2584 0.0547
v  -0.0922 0.2614 0.1002
v  -0.0516 0.2495 0.1381
v  -0.0038 0.2453 0.1593
v  0.0557 0.2510 0.1381
v  0.1055 0.2582 0.1002
v  0.1302 0.2587 0.0547
v  0.1367 0.2588 0.0011
v  0.1302 0.2588 -0.0526
v  0.1055 0.2588 -0.0981
v  0.0598 0.2588 -0.1285
v  0.0062 0.2224 -0.1507
v  -0.0519 0.2224 -0.1391
v  -0.1011 0.2238 -0.1063
v  -0.1300 0.2320 -0.0570
v  -0.1406 0.2282 0.0011
v  -0.1300 0.2320 0.0591
v  -0.1011 0.2233 0.1084
v  -0.0526 0.2168 0.1426
v  0.0027 0.2140 0.1591
v  0.0635 0.2186 0.1426
v  0.1130 0.2224 0.1084
v  0.1367 0.2224 0.0591
v  0.1418 0.2224 0.0011
v  0.1367 0.2224 -0.0570
v  0.1130 0.2224 -0.1063
v  0.0643 0.2224 -0.1391
v  0.0062 0.1861 -0.1391
v  -0.0475 0.1861 -0.1285
v  -0.0929 0.1861 -0.0981
v  -0.1233 0.1871 -0.0526
v  -0.1340 0.1903 0.0011
v  -0.1233 0.1871 0.0547
v  -0.0929 0.1861 0.1002
v  -0.0475 0.1858 0.1306
v  0.0598 0.1860 0.1306
v  0.1055 0.1861 0.1002
v  0.1302 0.1861 0.0547
v  0.1367 0.1861 0.0011
v  0.1302 0.1861 -0.0526
v  0.1055 0.1861 -0.0981
v  0.0598 0.1861 -0.1285
v  0.0062 0.1553 -0.1063
v  -0.0349 0.1553 -0.0981
v  -0.0697 0.1553 -0.0748
v  -0.0929 0.1553 -0.0400
v  -0.1011 0.1553 0.0011
v  -0.0929 0.1553 0.0421
v  -0.0697 0.1553 0.0769
v  -0.0349 0.1553 0.1002
v  0.0062 0.1553 0.1084
v  0.0473 0.1553 0.1002
v  0.0821 0.1553 0.0769
v  0.1055 0.1553 0.0421
v  0.1130 0.1553 0.0011
v  0.1055 0.1553 -0.0400
v  0.0821 0.1553 -0.0748
v  0.0473 0.1553 -0.0981
# 138 vertices

vn 0.8280 0.2937 -0.4776
vn 0.9561 0.2931 -0.0000
vn 0.9720 0.2351 -0.0000
vn 0.8416 0.2352 -0.4863
vn 0.4783 0.2953 -0.8270
vn 0.4855 0.2353 -0.8420
vn 0.0008 0.2976 -0.9547
vn -0.0007 0.2355 -0.9719
vn -0.4764 0.2999 -0.8265
vn -0.4864 0.2357 -0.8413
vn -0.8255 0.3015 -0.4771
vn -0.8418 0.2358 -0.4856
vn -0.9533 0.3021 -0.0000
vn -0.9718 0.2359 -0.0000
vn -0.8255 0.3015 0.4771
vn -0.8418 0.2358 0.4856
vn -0.4764 0.2999 0.8265
vn -0.4864 0.2357 0.8413
vn 0.0008 0.2976 0.9547
vn -0.0007 0.2355 0.9719
vn 0.4783 0.2953 0.8270
vn 0.4855 0.2353 0.8420
vn 0.8280 0.2937 0.4776
vn 0.8416 0.2352 0.4863
vn 0.9997 0.0248 -0.0000
vn 0.8658 0.0245 -0.4997
vn 0.5001 0.0239 -0.8657
vn 0.0003 0.0230 -0.9997
vn -0.4997 0.0221 -0.8659
vn -0.8658 0.0215 -0.5000
vn -0.9998 0.0212 -0.0000
vn -0.8658 0.0215 0.5000
vn -0.4997 0.0221 0.8659
vn 0.0003 0.0230 0.9997
vn 0.5001 0.0239 0.8657
vn 0.8658 0.0245 0.4997
vn 0.9673 -0.2536 -0.0000
vn 0.8377 -0.2536 -0.4837
vn 0.4837 -0.2536 -0.8377
vn 0.0000 -0.2536 -0.9673
vn -0.4837 -0.2536 -0.8377
vn -0.8377 -0.2536 -0.4837
vn -0.9673 -0.2536 -0.0000
vn -0.8377 -0.2536 0.4837
vn -0.4837 -0.2536 0.8377
vn 0.0000 -0.2536 0.9673
vn 0.4837 -0.2536 0.8377
vn 0.8377 -0.2536 0.4837
vn 0.9239 -0.3827 -0.0000
vn 0.8001 -0.3827 -0.4619
vn 0.4619 -0.3827 -0.8001
vn 0.0000 -0.3827 -0.9239
vn -0.4619 -0.3827 -0.8001
vn -0.8001 -0.3827 -0.4619
vn -0.9239 -0.3827 -0.0000
vn -0.8001 -0.3827 0.4619
vn -0.4619 -0.3827 0.8001
vn 0.0000 -0.3827 0.9239
vn 0.4619 -0.3827 0.8001
vn 0.8001 -0.3827 0.4619
vn -0.1074 0.9720 0.2088
vn 0.1858 0.9755 0.1175
vn 0.1102 0.9803 -0.1642
vn -0.1690 0.9755 -0.1409
vn 0.0004 0.8346 -0.5509
vn -0.2187 0.8425 -0.4922
vn -0.4209 0.8799 -0.2204
vn -0.3676 0.8839 0.2891
vn -0.0051 0.8528 0.5223
vn 0.3162 0.8562 0.4085
vn 0.5248 0.8233 0.2162
vn 0.5814 0.8133 0.0226
vn 0.5213 0.8354 -0.1740
vn 0.3873 0.8425 -0.3743
vn 0.2117 0.8331 -0.5110
vn 0.0000 0.5200 -0.8542
vn -0.3152 0.5139 -0.7979
vn -0.5955 0.5678 -0.5683
vn -0.7507 0.6201 -0.2281
vn -0.7768 0.6297 0.0039
vn -0.7433 0.6266 0.2342
vn -0.5848 0.5765 0.5706
vn -0.4043 0.4796 0.7788
vn -0.0945 0.3806 0.9199
vn 0.3543 0.5387 0.7644
vn 0.6123 0.5463 0.5716
vn 0.8437 0.4613 0.2747
vn 0.9148 0.4036 0.0136
vn 0.8559 0.4424 -0.2679
vn 0.6339 0.5068 -0.5842
vn 0.3262 0.5201 -0.7893
vn 0.0000 0.0000 -1.0000
vn -0.3817 -0.0012 -0.9243
vn -0.7168 0.0041 -0.6973
vn -0.9328 0.0956 -0.3476
vn -0.9975 0.0702 -0.0012
vn -0.9263 0.0923 0.3654
vn -0.7332 -0.0044 0.6800
vn -0.4549 -0.1167 0.8829
vn -0.0079 -0.2873 0.9578
vn 0.4358 -0.0709 0.8972
vn 0.7555 0.0097 0.6551
vn 0.9586 0.0115 0.2844
vn 1.0000 0.0000 -0.0000
vn 0.9588 -0.0109 -0.2840
vn 0.7480 -0.0068 -0.6637
vn 0.3840 -0.0009 -0.9233
vn 0.0000 -0.5200 -0.8542
vn -0.3269 -0.5200 -0.7892
vn -0.6089 -0.5158 -0.6026
vn -0.8304 -0.4607 -0.3133
vn -0.9036 -0.4284 0.0025
vn -0.8277 -0.4574 0.3251
vn -0.6241 -0.5069 0.5946
vn -0.3284 -0.5699 0.7533
vn 0.2966 -0.5727 0.7643
vn 0.6362 -0.5097 0.5792
vn 0.8574 -0.4380 0.2704
vn 0.9206 -0.3904 -0.0111
vn 0.8545 -0.4407 -0.2749
vn 0.6436 -0.5053 -0.5748
vn 0.3274 -0.5192 -0.7894
vn 0.0000 -0.7299 -0.6836
vn -0.2616 -0.7299 -0.6316
vn -0.4834 -0.7299 -0.4834
vn -0.6419 -0.7210 -0.2612
vn -0.7216 -0.6922 0.0125
vn -0.6546 -0.7109 0.2573
vn -0.4883 -0.7274 0.4822
vn -0.2617 -0.7324 0.6285
vn 0.0315 -0.6693 0.7423
vn 0.2385 -0.7081 0.6646
vn 0.4811 -0.7310 0.4838
vn 0.6897 -0.6793 0.2506
vn 0.7846 -0.6198 -0.0155
vn 0.7069 -0.6565 -0.2631
vn 0.5054 -0.7188 -0.4773
vn 0.2611 -0.7301 -0.6315
# 138 vertex normals

vt 0.1517 0.3416 -0.0536
vt 0.0885 0.3617 -0.0536
vt 0.0611 0.2969 0.0049
vt 0.1331 0.2754 0.0051
vt 0.2188 0.3277 -0.0536
vt 0.2061 0.2602 0.0054
vt 0.2879 0.3173 -0.0536
vt 0.2791 0.2490 0.0059
vt 0.3578 0.3099 -0.0536
vt 0.3523 0.2411 0.0064
vt 0.4281 0.3057 -0.0536
vt 0.4257 0.2365 0.0068
vt 0.4997 0.3056 -0.0536
vt 0.4996 0.2366 0.0069
vt 0.5715 0.3057 -0.0536
vt 0.5735 0.2365 0.0068
vt 0.6420 0.3092 -0.0536
vt 0.6470 0.2404 0.0064
vt 0.7118 0.3159 -0.0536
vt 0.7206 0.2477 0.0059
vt 0.7800 0.3258 -0.0536
vt 0.7941 0.2586 0.0054
vt 0.8446 0.3411 -0.0536
vt 0.8672 0.2750 0.0051
vt 0.9044 0.3663 -0.0536
vt 0.9363 0.3050 0.0049
vt 0.0304 0.2050 0.0536
vt 0.1106 0.1859 0.0536
vt 0.1889 0.1697 0.0536
vt 0.2664 0.1573 0.0536
vt 0.3440 0.1487 0.0536
vt 0.4219 0.1437 0.0536
vt 0.4995 0.1439 0.0536
vt 0.5770 0.1437 0.0536
vt 0.6549 0.1482 0.0536
vt 0.7328 0.1564 0.0536
vt 0.8115 0.1684 0.0536
vt 0.8925 0.1834 0.0536
vt 0.9393 0.2974 0.0049
vt 0.9721 0.2102 0.0536
vt 0.0243 0.1592 0.0376
vt 0.1038 0.1450 0.0376
vt 0.1823 0.1288 0.0376
vt 0.2611 0.1159 0.0376
vt 0.3404 0.1069 0.0376
vt 0.4199 0.1017 0.0376
vt 0.4993 0.1018 0.0376
vt 0.5788 0.1018 0.0376
vt 0.6582 0.1065 0.0376
vt 0.7373 0.1153 0.0376
vt 0.8162 0.1275 0.0376
vt 0.8954 0.1391 0.0376
vt 0.9772 0.1825 0.0536
vt 0.9758 0.1401 0.0376
vt 0.0232 0.1152 -0.0094
vt 0.0977 0.1035 -0.0094
vt 0.1754 0.0877 -0.0094
vt 0.2555 0.0744 -0.0094
vt 0.3367 0.0651 -0.0094
vt 0.4183 0.0599 -0.0094
vt 0.4993 0.0597 -0.0094
vt 0.5801 0.0599 -0.0094
vt 0.6615 0.0647 -0.0094
vt 0.7422 0.0738 -0.0094
vt 0.8207 0.0859 -0.0094
vt 0.8955 0.0960 -0.0094
vt 0.9761 0.1314 0.0376
vt 0.9680 0.0898 -0.0094
vt 0.4459 0.5600 0.0000
vt 0.5302 0.6240 0.0000
vt 0.4881 0.7064 0.0000
vt 0.4481 0.6979 0.0000
vt 0.4806 0.7659 0.0000
vt 0.4337 0.7557 0.0000
vt 0.3923 0.7323 0.0000
vt 0.3851 0.5326 0.0000
vt 0.4733 0.4988 0.0000
vt 0.5644 0.5568 0.0000
vt 0.5896 0.5978 0.0000
vt 0.5999 0.6429 0.0000
vt 0.5898 0.6856 0.0000
vt 0.5625 0.7235 0.0000
vt 0.5261 0.7545 0.0000
vt 0.4784 0.8145 0.0000
vt 0.4126 0.8000 0.0000
vt 0.3627 0.7548 0.0000
vt 0.3288 0.6945 0.0000
vt 0.3109 0.6277 0.0000
vt 0.3236 0.5617 0.0000
vt 0.3631 0.5063 0.0000
vt 0.4102 0.4529 0.0000
vt 0.4722 0.4362 0.0000
vt 0.5453 0.4686 0.0000
vt 0.6007 0.5234 0.0000
vt 0.6308 0.5777 0.0000
vt 0.6426 0.6424 0.0000
vt 0.6313 0.7073 0.0000
vt 0.5984 0.7604 0.0000
vt 0.5442 0.8001 0.0000
vt 0.4770 0.8498 0.0000
vt 0.3970 0.8317 0.0000
vt 0.3331 0.7801 0.0000
vt 0.3058 0.7059 0.0000
vt 0.2842 0.6285 0.0000
vt 0.3033 0.5505 0.0000
vt 0.3356 0.4790 0.0000
vt 0.3979 0.4254 0.0000
vt 0.4800 0.4174 0.0000
vt 0.5662 0.4416 0.0000
vt 0.6273 0.4970 0.0000
vt 0.6663 0.5619 0.0000
vt 0.6814 0.6428 0.0000
vt 0.6650 0.7235 0.0000
vt 0.6231 0.7868 0.0000
vt 0.5570 0.8334 0.0000
vt 0.4759 0.8841 0.0000
vt 0.3825 0.8627 0.0000
vt 0.3058 0.8050 0.0000
vt 0.2595 0.7219 0.0000
vt 0.2454 0.6282 0.0000
vt 0.2593 0.5343 0.0000
vt 0.3086 0.4529 0.0000
vt 0.3848 0.3970 0.0000
vt 0.5842 0.4112 0.0000
vt 0.6552 0.4725 0.0000
vt 0.7026 0.5501 0.0000
vt 0.7203 0.6436 0.0000
vt 0.6993 0.7365 0.0000
vt 0.6475 0.8113 0.0000
vt 0.5695 0.8658 0.0000
vt 0.4748 0.9353 0.0000
vt 0.3611 0.9093 0.0000
vt 0.2676 0.8400 0.0000
vt 0.2085 0.7410 0.0000
vt 0.1883 0.6279 0.0000
vt 0.2094 0.5146 0.0000
vt 0.2709 0.4166 0.0000
vt 0.3667 0.3484 0.0000
vt 0.4885 0.3297 0.0000
vt 0.6070 0.3627 0.0000
vt 0.6953 0.4376 0.0000
vt 0.7496 0.5358 0.0000
vt 0.7670 0.6446 0.0000
vt 0.7449 0.7530 0.0000
vt 0.6839 0.8481 0.0000
vt 0.5890 0.9134 0.0000
# 146 texture coords

g Mushroom1
usemtl _Mushroom1Mushroom1
s 4
f 1/1/1 2/2/2 3/3/3 4/4/4 
f 5/5/5 1/1/1 4/4/4 6/6/6 
f 7/7/7 5/5/5 6/6/6 8/8/8 
f 9/9/9 7/7/7 8/8/8 10/10/10 
f 11/11/11 9/9/9 10/10/10 12/12/12 
f 13/13/13 11/11/11 12/12/12 14/14/14 
f 15/15/15 13/13/13 14/14/14 16/16/16 
f 17/17/17 15/15/15 16/16/16 18/18/18 
f 19/19/19 17/17/17 18/18/18 20/20/20 
f 21/21/21 19/19/19 20/20/20 22/22/22 
f 23/23/23 21/21/21 22/22/22 24/24/24 
f 2/25/2 23/23/23 24/24/24 3/26/3 
f 4/4/4 3/3/3 25/27/25 26/28/26 
f 6/6/6 4/4/4 26/28/26 27/29/27 
f 8/8/8 6/6/6 27/29/27 28/30/28 
f 10/10/10 8/8/8 28/30/28 29/31/29 
f 12/12/12 10/10/10 29/31/29 30/32/30 
f 14/14/14 12/12/12 30/32/30 31/33/31 
f 16/16/16 14/14/14 31/33/31 32/34/32 
f 18/18/18 16/16/16 32/34/32 33/35/33 
f 20/20/20 18/18/18 33/35/33 34/36/34 
f 22/22/22 20/20/20 34/36/34 35/37/35 
f 24/24/24 22/22/22 35/37/35 36/38/36 
f 3/39/3 24/24/24 36/38/36 25/40/25 
f 26/28/26 25/27/25 37/41/37 38/42/38 
f 27/29/27 26/28/26 38/42/38 39/43/39 
f 28/30/28 27/29/27 39/43/39 40/44/40 
f 29/31/29 28/30/28 40/44/40 41/45/41 
f 30/32/30 29/31/29 41/45/41 42/46/42 
f 31/33/31 30/32/30 42/46/42 43/47/43 
f 32/34/32 31/33/31 43/47/43 44/48/44 
f 33/35/33 32/34/32 44/48/44 45/49/45 
f 34/36/34 33/35/33 45/49/45 46/50/46 
f 35/37/35 34/36/34 46/50/46 47/51/47 
f 36/38/36 35/37/35 47/51/47 48/52/48 
f 25/53/25 36/38/36 48/52/48 37/54/37 
f 38/42/38 37/41/37 49/55/49 50/56/50 
f 39/43/39 38/42/38 50/56/50 51/57/51 
f 40/44/40 39/43/39 51/57/51 52/58/52 
f 41/45/41 40/44/40 52/58/52 53/59/53 
f 42/46/42 41/45/41 53/59/53 54/60/54 
f 43/47/43 42/46/42 54/60/54 55/61/55 
f 44/48/44 43/47/43 55/61/55 56/62/56 
f 45/49/45 44/48/44 56/62/56 57/63/57 
f 46/50/46 45/49/45 57/63/57 58/64/58 
f 47/51/47 46/50/46 58/64/58 59/65/59 
f 48/52/48 47/51/47 59/65/59 60/66/60 
f 37/67/37 48/52/48 60/66/60 49/68/49 
s 1
f 61/69/61 62/70/62 63/71/63 
f 61/69/61 63/71/63 64/72/64 
f 64/72/64 65/73/65 66/74/66 
f 64/72/64 66/74/66 67/75/67 
f 61/69/61 64/72/64 67/75/67 68/76/68 
f 69/77/69 62/70/62 61/69/61 68/76/68 
f 62/70/62 69/77/69 70/78/70 
f 62/70/62 70/78/70 71/79/71 
f 62/70/62 71/79/71 72/80/72 
f 62/70/62 72/80/72 73/81/73 63/71/63 
f 63/71/63 73/81/73 74/82/74 
f 63/71/63 74/82/74 75/83/75 
f 63/71/63 75/83/75 65/73/65 64/72/64 
f 76/84/76 77/85/77 66/74/66 65/73/65 
f 66/74/66 77/85/77 78/86/78 67/75/67 
f 67/75/67 78/86/78 79/87/79 
f 67/75/67 79/87/79 80/88/80 
f 80/88/80 81/89/81 68/76/68 67/75/67 
f 68/76/68 81/89/81 82/90/82 
f 68/76/68 82/90/82 83/91/83 
f 83/91/83 84/92/84 69/77/69 68/76/68 
f 69/77/69 84/92/84 85/93/85 
f 85/93/85 86/94/86 70/78/70 69/77/69 
f 70/78/70 86/94/86 87/95/87 71/79/71 
f 71/79/71 87/95/87 88/96/88 72/80/72 
f 88/96/88 89/97/89 73/81/73 72/80/72 
f 89/97/89 90/98/90 74/82/74 73/81/73 
f 90/98/90 91/99/91 75/83/75 74/82/74 
f 91/99/91 76/84/76 65/73/65 75/83/75 
f 92/100/92 93/101/93 77/85/77 76/84/76 
f 77/85/77 93/101/93 94/102/94 78/86/78 
f 78/86/78 94/102/94 95/103/95 79/87/79 
f 95/103/95 96/104/96 80/88/80 79/87/79 
f 80/88/80 96/104/96 97/105/97 81/89/81 
f 97/105/97 98/106/98 82/90/82 81/89/81 
f 98/106/98 99/107/99 83/91/83 82/90/82 
f 99/107/99 100/108/100 84/92/84 83/91/83 
f 100/108/100 101/109/101 85/93/85 84/92/84 
f 85/93/85 101/109/101 102/110/102 86/94/86 
f 86/94/86 102/110/102 103/111/103 87/95/87 
f 87/95/87 103/111/103 104/112/104 88/96/88 
f 104/112/104 105/113/105 89/97/89 88/96/88 
f 105/113/105 106/114/106 90/98/90 89/97/89 
f 106/114/106 107/115/107 91/99/91 90/98/90 
f 107/115/107 92/100/92 76/84/76 91/99/91 
f 108/116/108 109/117/109 93/101/93 92/100/92 
f 93/101/93 109/117/109 110/118/110 94/102/94 
f 94/102/94 110/118/110 111/119/111 95/103/95 
f 111/119/111 112/120/112 96/104/96 95/103/95 
f 96/104/96 112/120/112 113/121/113 97/105/97 
f 113/121/113 114/122/114 98/106/98 97/105/97 
f 114/122/114 115/123/115 99/107/99 98/106/98 
f 99/107/99 115/123/115 100/108/100 
f 116/124/116 101/109/101 100/108/100 
f 116/124/116 117/125/117 102/110/102 101/109/101 
f 117/125/117 118/126/118 103/111/103 102/110/102 
f 118/126/118 119/127/119 104/112/104 103/111/103 
f 104/112/104 119/127/119 120/128/120 105/113/105 
f 105/113/105 120/128/120 121/129/121 106/114/106 
f 106/114/106 121/129/121 122/130/122 107/115/107 
f 122/130/122 108/116/108 92/100/92 107/115/107 
f 123/131/123 124/132/124 109/117/109 108/116/108 
f 124/132/124 125/133/125 110/118/110 109/117/109 
f 110/118/110 125/133/125 126/134/126 111/119/111 
f 111/119/111 126/134/126 127/135/127 112/120/112 
f 127/135/127 128/136/128 113/121/113 112/120/112 
f 128/136/128 129/137/129 114/122/114 113/121/113 
f 129/137/129 130/138/130 115/123/115 114/122/114 
f 115/123/115 130/138/130 131/139/131 100/108/100 
f 131/139/131 132/140/132 116/124/116 100/108/100 
f 132/140/132 133/141/133 117/125/117 116/124/116 
f 133/141/133 134/142/134 118/126/118 117/125/117 
f 134/142/134 135/143/135 119/127/119 118/126/118 
f 119/127/119 135/143/135 136/144/136 120/128/120 
f 120/128/120 136/144/136 137/145/137 121/129/121 
f 137/145/137 138/146/138 122/130/122 121/129/121 
f 138/146/138 123/131/123 108/116/108 122/130/122 
# 109 polygons - 16 triangles

