# 3ds Max Wavefront OBJ Exporter v0.97b - (c)2007 guruware
# File Created: 26.08.2018 15:52:39

mtllib Cross2.mtl

#
# object Krux2
#

v  -0.1206 2.5341 -0.1095
v  0.1072 2.5341 -0.1095
v  0.1072 2.3063 -0.1095
v  -0.1206 2.3063 -0.1095
v  0.1072 2.3063 0.1183
v  0.1072 2.5341 0.1183
v  -0.1206 2.5341 0.1183
v  -0.1206 2.3063 0.1183
v  0.5484 -0.0042 -0.5508
v  0.5484 -0.0042 0.5595
v  -0.5619 -0.0042 0.5595
v  -0.5619 -0.0042 -0.5508
v  0.4837 2.5341 -0.1095
v  0.4837 2.5341 0.1183
v  0.4837 2.3063 0.1183
v  0.4837 2.3063 -0.1095
v  -0.1206 2.9107 -0.1095
v  -0.1206 2.9107 0.1183
v  0.1072 2.9107 0.1183
v  0.1072 2.9107 -0.1095
v  -0.4972 2.3063 -0.1095
v  -0.4972 2.3063 0.1183
v  -0.4972 2.5341 0.1183
v  -0.4972 2.5341 -0.1095
v  0.1072 1.4896 -0.1095
v  -0.1206 1.4896 -0.1095
v  0.1072 1.4896 0.1183
v  -0.1206 1.4896 0.1183
v  0.1646 1.4600 -0.1670
v  -0.1781 1.4600 -0.1670
v  0.1646 1.4600 0.1757
v  -0.1781 1.4600 0.1757
v  0.2089 1.3758 -0.2113
v  -0.2224 1.3758 -0.2113
v  0.2089 1.3758 0.2200
v  -0.2224 1.3758 0.2200
v  0.2873 1.3565 -0.2896
v  -0.3007 1.3565 -0.2896
v  0.2873 1.3565 0.2984
v  -0.3007 1.3565 0.2984
v  0.3007 1.3155 -0.3030
v  -0.3141 1.3155 -0.3030
v  0.3007 1.3155 0.3118
v  -0.3141 1.3155 0.3118
v  0.2399 1.2977 -0.2422
v  -0.2533 1.2977 -0.2422
v  0.2399 1.2977 0.2510
v  -0.2533 1.2977 0.2510
v  0.3089 1.2769 -0.3113
v  -0.3224 1.2769 -0.3113
v  0.3089 1.2769 0.3200
v  -0.3224 1.2769 0.3200
v  0.3102 1.0832 -0.3126
v  -0.3237 1.0832 -0.3126
v  0.3102 1.0832 0.3213
v  -0.3237 1.0832 0.3213
v  0.5283 1.0017 -0.5306
v  -0.5417 1.0017 -0.5306
v  0.5283 1.0017 0.5394
v  -0.5417 1.0017 0.5394
# 60 vertices

vn 0.0000 0.0000 -1.0000
vn 0.0000 0.0000 1.0000
vn 0.0000 -1.0000 -0.0000
vn 1.0000 0.0000 -0.0000
vn 0.0000 1.0000 -0.0000
vn -1.0000 0.0000 -0.0000
vn 0.0000 0.8890 -0.4579
vn 0.4579 0.8890 -0.0000
vn 0.0000 0.8890 0.4579
vn -0.4579 0.8890 -0.0000
vn 0.0000 0.4656 -0.8850
vn 0.8850 0.4656 -0.0000
vn 0.0000 0.4656 0.8850
vn -0.8850 0.4656 -0.0000
vn 0.0000 0.9709 -0.2394
vn 0.2394 0.9709 -0.0000
vn 0.0000 0.9709 0.2394
vn -0.2394 0.9709 -0.0000
vn 0.0000 0.3110 -0.9504
vn 0.9504 0.3110 -0.0000
vn 0.0000 0.3110 0.9504
vn -0.9504 0.3110 -0.0000
vn 0.0000 -0.9598 -0.2806
vn 0.2806 -0.9598 -0.0000
vn 0.0000 -0.9598 0.2806
vn -0.2806 -0.9598 -0.0000
vn 0.0000 0.9572 -0.2893
vn 0.2893 0.9572 -0.0000
vn 0.0000 0.9572 0.2893
vn -0.2893 0.9572 -0.0000
vn 0.0000 0.0066 -1.0000
vn 1.0000 0.0066 -0.0000
vn 0.0000 0.0066 1.0000
vn -1.0000 0.0066 -0.0000
vn 0.0000 0.9367 -0.3501
vn 0.3501 0.9367 -0.0000
vn 0.0000 0.9367 0.3501
vn -0.3501 0.9367 -0.0000
vn 0.0000 0.0200 -0.9998
vn 0.9998 0.0200 -0.0000
vn 0.0000 0.0200 0.9998
vn -0.9998 0.0200 -0.0000
# 42 vertex normals

vt 0.1805 0.3583 0.0000
vt 0.2180 0.3972 0.0000
vt 0.1790 0.4347 0.0000
vt 0.1416 0.3957 0.0000
vt 0.5626 0.0020 0.0000
vt 0.5626 0.2653 0.0000
vt 0.2993 0.2653 0.0000
vt 0.2993 0.0020 0.0000
vt 0.9848 0.2939 0.0000
vt 0.9848 0.3479 0.0000
vt 0.9308 0.3479 0.0000
vt 0.9308 0.2939 0.0000
vt 0.5233 0.9112 0.0000
vt 0.5233 0.9652 0.0000
vt 0.4692 0.9652 0.0000
vt 0.4692 0.9112 0.0000
vt 0.9666 0.6204 0.0000
vt 0.9666 0.6744 0.0000
vt 0.9126 0.6744 0.0000
vt 0.9126 0.6204 0.0000
vt 0.2449 0.2964 0.0000
vt 0.2823 0.3353 0.0000
vt 0.1605 0.9458 0.0000
vt 0.1605 0.8565 0.0000
vt 0.2145 0.8565 0.0000
vt 0.2145 0.9458 0.0000
vt 0.9490 0.1509 0.0000
vt 0.8598 0.1509 0.0000
vt 0.8598 0.0968 0.0000
vt 0.9490 0.0968 0.0000
vt 0.0797 0.3314 0.0000
vt 0.1186 0.2939 0.0000
vt 0.9138 0.2939 0.0000
vt 0.9138 0.3832 0.0000
vt 0.8598 0.3832 0.0000
vt 0.8598 0.2939 0.0000
vt 0.2799 0.4616 0.0000
vt 0.2409 0.4990 0.0000
vt 0.9138 0.4002 0.0000
vt 0.9138 0.4894 0.0000
vt 0.8598 0.4894 0.0000
vt 0.8598 0.4002 0.0000
vt 0.5795 0.9119 0.0000
vt 0.6688 0.9119 0.0000
vt 0.6688 0.9659 0.0000
vt 0.5795 0.9659 0.0000
vt 0.1187 0.2939 0.0000
vt 0.4692 0.8942 0.0000
vt 0.4692 0.8049 0.0000
vt 0.5233 0.8049 0.0000
vt 0.5233 0.8942 0.0000
vt 0.0394 0.5689 0.0000
vt 0.0020 0.5299 0.0000
vt 0.5795 0.7152 0.0000
vt 0.7732 0.7152 0.0000
vt 0.7732 0.7692 0.0000
vt 0.5795 0.7692 0.0000
vt 0.9389 0.6034 0.0000
vt 0.7453 0.6034 0.0000
vt 0.7453 0.5494 0.0000
vt 0.9389 0.5494 0.0000
vt 0.8744 0.0185 0.0000
vt 0.8598 0.0020 0.0000
vt 0.9474 0.0020 0.0000
vt 0.9327 0.0185 0.0000
vt 0.8744 0.0703 0.0000
vt 0.8598 0.0799 0.0000
vt 0.5555 0.8726 0.0000
vt 0.5402 0.8862 0.0000
vt 0.5402 0.8049 0.0000
vt 0.5555 0.8185 0.0000
vt 0.9474 0.0799 0.0000
vt 0.9327 0.0703 0.0000
vt 0.7580 0.8074 0.0000
vt 0.7468 0.7862 0.0000
vt 0.8555 0.7862 0.0000
vt 0.8443 0.8074 0.0000
vt 0.7775 0.9119 0.0000
vt 0.7881 0.9345 0.0000
vt 0.6858 0.9345 0.0000
vt 0.6963 0.9119 0.0000
vt 0.3968 0.9749 0.0000
vt 0.4080 0.9961 0.0000
vt 0.2993 0.9961 0.0000
vt 0.3105 0.9749 0.0000
vt 0.7573 0.8716 0.0000
vt 0.7468 0.8490 0.0000
vt 0.8491 0.8490 0.0000
vt 0.8386 0.8716 0.0000
vt 0.0209 0.9791 0.0000
vt 0.0020 0.9980 0.0000
vt 0.0020 0.8565 0.0000
vt 0.0209 0.8754 0.0000
vt 0.1246 0.9791 0.0000
vt 0.1435 0.9980 0.0000
vt 0.1246 0.8754 0.0000
vt 0.1435 0.8565 0.0000
vt 0.5828 0.2675 0.0000
vt 0.5795 0.2575 0.0000
vt 0.7290 0.2575 0.0000
vt 0.7258 0.2675 0.0000
vt 0.9476 0.9119 0.0000
vt 0.9508 0.9221 0.0000
vt 0.8050 0.9221 0.0000
vt 0.8082 0.9119 0.0000
vt 0.8916 0.6833 0.0000
vt 0.8948 0.6932 0.0000
vt 0.7453 0.6932 0.0000
vt 0.7486 0.6833 0.0000
vt 0.8082 0.9493 0.0000
vt 0.8050 0.9391 0.0000
vt 0.9508 0.9391 0.0000
vt 0.9476 0.9493 0.0000
vt 0.7283 0.5494 0.0000
vt 0.7136 0.5641 0.0000
vt 0.5942 0.5641 0.0000
vt 0.5795 0.5494 0.0000
vt 0.7283 0.6982 0.0000
vt 0.7136 0.6835 0.0000
vt 0.5795 0.6982 0.0000
vt 0.5942 0.6835 0.0000
vt 0.3160 0.8217 0.0000
vt 0.2993 0.8049 0.0000
vt 0.4523 0.8049 0.0000
vt 0.4356 0.8217 0.0000
vt 0.3160 0.9412 0.0000
vt 0.2993 0.9579 0.0000
vt 0.4356 0.9412 0.0000
vt 0.4523 0.9579 0.0000
vt 0.5798 0.8950 0.0000
vt 0.5795 0.8490 0.0000
vt 0.7298 0.8490 0.0000
vt 0.7295 0.8950 0.0000
vt 0.8953 0.6204 0.0000
vt 0.8956 0.6663 0.0000
vt 0.7453 0.6663 0.0000
vt 0.7456 0.6204 0.0000
vt 0.7295 0.7862 0.0000
vt 0.7298 0.8321 0.0000
vt 0.5795 0.8321 0.0000
vt 0.5798 0.7862 0.0000
vt 0.7904 0.7611 0.0000
vt 0.7901 0.7152 0.0000
vt 0.9405 0.7152 0.0000
vt 0.9401 0.7611 0.0000
vt 0.2177 0.7806 0.0000
vt 0.2729 0.8395 0.0000
vt 0.0020 0.8395 0.0000
vt 0.0572 0.7806 0.0000
vt 0.2177 0.6303 0.0000
vt 0.2729 0.5858 0.0000
vt 0.0572 0.6303 0.0000
vt 0.0020 0.5858 0.0000
vt 0.5843 0.2406 0.0000
vt 0.5795 0.0020 0.0000
vt 0.8428 0.0020 0.0000
vt 0.8380 0.2406 0.0000
vt 0.5578 0.5494 0.0000
vt 0.5626 0.7880 0.0000
vt 0.2993 0.7880 0.0000
vt 0.3041 0.5494 0.0000
vt 0.8381 0.2939 0.0000
vt 0.8428 0.5325 0.0000
vt 0.5795 0.5325 0.0000
vt 0.5843 0.2939 0.0000
vt 0.3041 0.5325 0.0000
vt 0.2993 0.2939 0.0000
vt 0.5626 0.2939 0.0000
vt 0.5578 0.5325 0.0000
# 169 texture coords

g Krux2
usemtl _Cross2Krux2
s 2
f 1/1/1 2/2/1 3/3/1 4/4/1 
s 4
f 5/4/2 6/1/2 7/2/2 8/3/2 
s 8
f 9/5/3 10/6/3 11/7/3 12/8/3 
s 16
f 13/9/4 14/10/4 15/11/4 16/12/4 
s 32
f 17/13/5 18/14/5 19/15/5 20/16/5 
s 64
f 21/17/6 22/18/6 23/19/6 24/20/6 
s off
f 1/1/1 17/21/1 20/22/1 2/2/1 
f 7/23/6 18/24/6 17/25/6 1/26/6 
f 6/1/2 19/21/2 18/22/2 7/2/2 
f 2/27/4 20/28/4 19/29/4 6/30/4 
f 4/4/1 21/31/1 24/32/1 1/1/1 
f 8/33/3 22/34/3 21/35/3 4/36/3 
f 7/2/2 23/37/2 22/38/2 8/3/2 
f 1/39/5 24/40/5 23/41/5 7/42/5 
f 2/2/1 13/37/1 16/38/1 3/3/1 
f 6/43/5 14/44/5 13/45/5 2/46/5 
f 5/4/2 15/31/2 14/47/2 6/1/2 
f 3/48/3 16/49/3 15/50/3 5/51/3 
f 3/3/1 25/52/1 26/53/1 4/4/1 
f 5/54/4 27/55/4 25/56/4 3/57/4 
f 8/3/2 28/52/2 27/53/2 5/4/2 
f 4/58/6 26/59/6 28/60/6 8/61/6 
f 25/62/7 29/63/7 30/64/7 26/65/7 
f 27/66/8 31/67/8 29/63/8 25/62/8 
f 28/68/9 32/69/9 31/70/9 27/71/9 
f 26/65/10 30/64/10 32/72/10 28/73/10 
f 29/74/11 33/75/11 34/76/11 30/77/11 
f 31/78/12 35/79/12 33/80/12 29/81/12 
f 32/82/13 36/83/13 35/84/13 31/85/13 
f 30/86/14 34/87/14 36/88/14 32/89/14 
f 33/90/15 37/91/15 38/92/15 34/93/15 
f 35/94/16 39/95/16 37/91/16 33/90/16 
f 36/96/17 40/97/17 39/95/17 35/94/17 
f 34/93/18 38/92/18 40/97/18 36/96/18 
f 37/98/19 41/99/19 42/100/19 38/101/19 
f 39/102/20 43/103/20 41/104/20 37/105/20 
f 40/106/21 44/107/21 43/108/21 39/109/21 
f 38/110/22 42/111/22 44/112/22 40/113/22 
f 41/114/23 45/115/23 46/116/23 42/117/23 
f 43/118/24 47/119/24 45/115/24 41/114/24 
f 44/120/25 48/121/25 47/119/25 43/118/25 
f 42/117/26 46/116/26 48/121/26 44/120/26 
f 45/122/27 49/123/27 50/124/27 46/125/27 
f 47/126/28 51/127/28 49/123/28 45/122/28 
f 48/128/29 52/129/29 51/127/29 47/126/29 
f 46/125/30 50/124/30 52/129/30 48/128/30 
f 49/130/31 53/131/31 54/132/31 50/133/31 
f 51/134/32 55/135/32 53/136/32 49/137/32 
f 52/138/33 56/139/33 55/140/33 51/141/33 
f 50/142/34 54/143/34 56/144/34 52/145/34 
f 53/146/35 57/147/35 58/148/35 54/149/35 
f 55/150/36 59/151/36 57/147/36 53/146/36 
f 56/152/37 60/153/37 59/151/37 55/150/37 
f 54/149/38 58/148/38 60/153/38 56/152/38 
f 57/154/39 9/155/39 12/156/39 58/157/39 
f 59/158/40 10/159/40 9/160/40 57/161/40 
f 60/162/41 11/163/41 10/164/41 59/165/41 
f 58/166/42 12/167/42 11/168/42 60/169/42 
# 58 polygons

