# 3ds Max Wavefront OBJ Exporter v0.97b - (c)2007 guruware
# File Created: 26.08.2018 10:41:27

mtllib Bush.mtl

#
# object Bush
#

v  0.0125 0.2907 0.0113
v  -0.0780 0.2907 0.0383
v  -0.0317 -0.0500 0.0696
v  0.0588 -0.0500 0.0426
v  -0.0237 -0.0500 -0.0161
v  -0.0701 0.2907 -0.0474
v  0.0461 0.5290 0.0376
v  -0.0411 0.5473 0.0642
v  -0.0335 0.5457 -0.0202
v  0.2020 0.9550 -0.0143
v  0.1470 0.9665 0.0025
v  0.1518 0.9655 -0.0508
v  0.2620 1.3520 -0.0039
v  0.2250 1.3454 0.0065
v  0.2283 1.3503 -0.0285
v  0.2292 1.4140 -0.0191
v  0.2550 1.4252 0.0052
v  0.2267 1.4084 0.0136
v  0.1734 1.6670 0.0117
v  0.1902 1.6902 0.0063
v  0.0603 1.9293 -0.0667
v  0.1748 1.6723 -0.0142
v  0.3378 1.6095 0.1280
v  0.3190 1.6062 0.1333
v  0.3343 1.6468 0.1327
v  0.3199 1.6382 0.1369
v  0.4238 1.6924 0.2380
v  -0.1451 0.1975 0.0253
v  -0.0927 0.2150 0.0742
v  -0.0070 -0.0369 0.0305
v  -0.0593 -0.0544 -0.0184
v  -0.0640 -0.0559 0.0606
v  -0.1498 0.1959 0.1042
v  -0.2006 0.3751 -0.0079
v  -0.1543 0.4056 0.0390
v  -0.2100 0.3857 0.0688
v  -0.3996 0.6594 -0.0899
v  -0.3703 0.6787 -0.0603
v  -0.4055 0.6661 -0.0415
v  -0.5146 0.9478 -0.1339
v  -0.4920 0.9499 -0.1137
v  -0.5166 0.9458 -0.1014
v  -0.5267 0.9948 -0.1059
v  -0.5243 1.0049 -0.1331
v  -0.5038 0.9979 -0.1178
v  -0.5481 1.1960 -0.0816
v  -0.5638 1.2099 -0.0905
v  -0.6180 1.3886 0.0257
v  -0.5663 1.1943 -0.0719
v  -0.5250 1.1564 -0.2386
v  -0.5135 1.1575 -0.2283
v  -0.5299 1.1855 -0.2382
v  -0.5195 1.1819 -0.2304
v  -0.5099 1.2297 -0.3410
v  -0.0465 0.3888 0.0951
v  -0.0015 0.4028 0.0591
v  -0.0264 0.2001 -0.0143
v  -0.0714 0.1860 0.0217
v  -0.0090 0.1847 0.0346
v  0.0158 0.3875 0.1080
v  -0.0794 0.5318 0.1356
v  -0.0366 0.5564 0.1041
v  -0.0194 0.5404 0.1519
v  -0.1677 0.7607 0.2846
v  -0.1408 0.7762 0.2647
v  -0.1299 0.7661 0.2949
v  -0.2162 0.9930 0.3712
v  -0.1974 0.9947 0.3555
v  -0.1905 0.9914 0.3765
v  -0.1952 1.0308 0.3841
v  -0.2166 1.0390 0.3790
v  -0.2020 1.0333 0.3644
v  -0.1783 1.1929 0.4039
v  -0.1872 1.2040 0.4154
v  -0.1009 1.3479 0.4721
v  -0.1727 1.1915 0.4196
v  -0.3008 1.1609 0.3673
v  -0.2912 1.1618 0.3593
v  -0.3010 1.1843 0.3713
v  -0.2936 1.1815 0.3639
v  -0.3806 1.2199 0.3435
v  -0.0804 0.3858 -0.0320
v  -0.0322 0.4034 0.0241
v  0.0104 0.1289 0.0352
v  -0.0377 0.1113 -0.0210
v  -0.0551 0.1251 0.0575
v  -0.0977 0.3996 0.0465
v  -0.0955 0.5667 -0.1030
v  -0.0505 0.5981 -0.0520
v  -0.1148 0.5931 -0.0296
v  -0.2251 0.8696 -0.2662
v  -0.1967 0.8893 -0.2340
v  -0.2373 0.8862 -0.2199
v  -0.2761 1.1694 -0.3763
v  -0.2562 1.1714 -0.3521
v  -0.2835 1.1737 -0.3437
v  -0.2832 1.2236 -0.3577
v  -0.2746 1.2283 -0.3860
v  -0.2579 1.2206 -0.3657
v  -0.2685 1.4330 -0.3683
v  -0.2800 1.4478 -0.3823
v  -0.3170 1.6572 -0.3034
v  -0.2886 1.4361 -0.3617
v  -0.2287 1.3603 -0.5152
v  -0.2186 1.3614 -0.5029
v  -0.2279 1.3903 -0.5202
v  -0.2194 1.3864 -0.5098
v  -0.1830 1.4121 -0.6263
v  0.0571 0.9288 -0.0335
v  0.0798 0.9405 -0.0057
v  0.1175 0.8080 -0.0002
v  0.0949 0.7963 -0.0280
v  0.0855 0.8021 0.0109
v  0.0478 0.9346 0.0054
v  0.0387 1.0170 -0.0687
v  0.0589 1.0352 -0.0434
v  0.0275 1.0288 -0.0323
v  -0.0437 1.1581 -0.1497
v  -0.0309 1.1696 -0.1337
v  -0.0507 1.1656 -0.1267
v  -0.0871 1.3026 -0.2043
v  -0.0774 1.3048 -0.1923
v  -0.0910 1.3043 -0.1882
v  -0.0939 1.3289 -0.1951
v  -0.0899 1.3317 -0.2091
v  -0.0812 1.3290 -0.1991
v  -0.0994 1.4329 -0.2003
v  -0.1060 1.4395 -0.2073
v  -0.1370 1.5403 -0.1682
v  -0.1095 1.4332 -0.1970
v  -0.0754 1.3995 -0.2732
v  -0.0705 1.4007 -0.2671
v  -0.0769 1.4143 -0.2757
v  -0.0724 1.4129 -0.2706
v  -0.0561 1.4278 -0.3283
# 135 vertices

vn 0.2835 0.1258 0.9507
vn 0.5797 0.0041 -0.8148
vn 0.5798 0.0041 -0.8148
vn -0.9856 -0.1424 -0.0913
vn 0.2726 -0.1393 0.9520
vn 0.5841 0.0049 -0.8116
vn -0.9843 0.1509 -0.0916
vn 0.2932 0.0092 0.9560
vn 0.5226 -0.2890 -0.8021
vn -0.9136 0.3966 -0.0903
vn 0.2791 -0.0674 0.9579
vn 0.5828 -0.0679 -0.8098
vn -0.9764 0.2003 -0.0803
vn 0.6124 0.1326 -0.7793
vn -0.9964 0.0313 -0.0794
vn -0.0543 0.2645 0.9629
vn 0.7093 0.1771 -0.6823
vn -0.8938 -0.4267 -0.1378
vn 0.2452 0.0568 0.9678
vn 0.6732 0.1616 -0.7216
vn -0.9739 -0.2024 -0.1032
vn 0.3158 -0.5046 0.8035
vn 0.6971 0.1535 -0.7004
vn -0.5225 0.5578 -0.6448
vn -0.7453 -0.0546 0.6645
vn 0.2750 -0.8588 0.4322
vn 0.7192 0.1528 -0.6777
vn -0.4998 0.8646 0.0506
vn -0.6783 -0.0640 0.7320
vn 0.5841 0.3276 -0.7426
vn -0.9480 -0.3122 -0.0623
vn 0.4651 0.0051 0.8853
vn 0.6745 0.0783 -0.7341
vn -0.9479 -0.3113 -0.0677
vn 0.3713 0.2830 0.8844
vn 0.6205 0.2168 -0.7537
vn -0.8163 -0.5772 -0.0205
vn 0.2591 0.5046 0.8236
vn 0.6533 0.1470 -0.7426
vn -0.9227 -0.3796 -0.0675
vn 0.3608 0.3316 0.8717
vn -0.9765 -0.1862 -0.1088
vn 0.4250 0.1749 0.8881
vn 0.7192 0.5189 -0.4621
vn -0.9609 -0.1341 -0.2423
vn 0.4716 -0.2924 0.8319
vn 0.6389 0.2732 -0.7191
vn -0.9696 -0.1533 -0.1909
vn 0.4685 -0.0569 0.8816
vn 0.6490 -0.3153 -0.6924
vn -0.9619 -0.1592 -0.2224
vn -0.4345 0.4430 0.7842
vn 0.9258 0.2515 0.2822
vn 0.4825 -0.7443 -0.4617
vn -0.9545 -0.1575 -0.2531
vn 0.0173 0.9173 0.3978
vn 0.9496 0.2495 0.1897
vn -0.6510 0.3276 -0.6847
vn -0.1979 -0.3122 0.9292
vn 0.9429 0.0051 -0.3330
vn -0.6295 0.0783 -0.7730
vn -0.2032 -0.3113 0.9283
vn 0.9285 0.2830 -0.2403
vn -0.6567 0.2168 -0.7223
vn -0.1376 -0.5772 0.8049
vn 0.8523 0.5046 -0.1380
vn -0.6411 0.1470 -0.7533
vn -0.1994 -0.3796 0.9034
vn 0.9145 0.3316 -0.2318
vn -0.2480 -0.1862 0.9507
vn 0.9400 0.1749 -0.2930
vn -0.3540 0.5189 -0.7781
vn -0.3778 -0.1341 0.9161
vn 0.8911 -0.2924 -0.3472
vn -0.6199 0.2732 -0.7356
vn -0.3283 -0.1533 0.9321
vn 0.9398 -0.0569 -0.3370
vn -0.5919 -0.3153 -0.7417
vn -0.3583 -0.1592 0.9199
vn 0.7136 0.4430 0.5427
vn 0.4123 0.2515 -0.8757
vn -0.3876 -0.7443 -0.5438
vn -0.3877 -0.1575 0.9082
vn 0.3961 0.9173 0.0401
vn 0.3242 0.2495 -0.9125
vn 0.7421 0.0885 -0.6644
vn -0.9696 -0.1582 -0.1864
vn 0.3174 0.0875 0.9442
vn 0.7805 -0.1666 -0.6025
vn -0.9686 -0.1584 -0.1918
vn 0.2800 0.3723 0.8849
vn 0.7577 -0.0269 -0.6520
vn -0.8993 -0.4294 -0.0823
vn 0.2231 0.5947 0.7724
vn 0.7745 -0.0980 -0.6249
vn -0.9573 -0.2287 -0.1768
vn 0.2812 0.4189 0.8634
vn -0.9660 -0.0397 -0.2555
vn 0.3108 0.2593 0.9144
vn 0.8672 0.3022 -0.3957
vn -0.9206 -0.0157 -0.3902
vn 0.2746 -0.2117 0.9380
vn 0.7812 0.0309 -0.6235
vn -0.9405 -0.0237 -0.3390
vn 0.3094 0.0261 0.9506
vn 0.6737 -0.5368 -0.5079
vn -0.9294 -0.0364 -0.3673
vn -0.4552 0.6419 0.6171
vn 0.9031 0.1425 0.4051
vn 0.3948 -0.8841 -0.2501
vn -0.9173 -0.0414 -0.3961
vn 0.1327 0.9583 0.2530
vn 0.9398 0.1200 0.3199
vn 0.7255 0.1792 -0.6644
vn -0.9428 -0.2765 -0.1864
vn 0.3042 0.1259 0.9442
vn 0.7951 -0.0692 -0.6025
vn -0.9417 -0.2765 -0.1918
vn 0.2321 0.4039 0.8849
vn 0.7552 0.0666 -0.6520
vn -0.8396 -0.5369 -0.0823
vn 0.1482 0.6177 0.7724
vn 0.7807 -0.0019 -0.6249
vn -0.9218 -0.3449 -0.1768
vn 0.2274 0.4503 0.8634
vn -0.9537 -0.1584 -0.2555
vn 0.2765 0.2956 0.9144
vn 0.8234 0.4067 -0.3957
vn -0.9116 -0.1290 -0.3902
vn 0.2986 -0.1763 0.9380
vn 0.7715 0.1269 -0.6235
vn -0.9304 -0.1394 -0.3390
vn 0.3038 0.0640 0.9506
vn 0.7347 -0.4497 -0.5079
vn -0.9178 -0.1506 -0.3673
vn -0.5308 0.5809 0.6171
vn 0.8787 0.2527 0.4051
vn 0.5006 -0.8287 -0.2501
vn -0.9052 -0.1541 -0.3961
vn 0.0137 0.9674 0.2530
vn 0.9179 0.2349 0.3199
# 141 vertex normals

vt 0.0780 0.1076 0.0000
vt 0.0507 0.1238 0.0000
vt 0.0020 0.0182 0.0000
vt 0.0294 0.0020 0.0000
vt 0.5700 0.0625 0.0000
vt 0.4569 0.0333 0.0000
vt 0.4707 0.0020 0.0000
vt 0.5837 0.0312 0.0000
vt 0.6245 0.4276 0.0000
vt 0.5942 0.4276 0.0000
vt 0.6036 0.3061 0.0000
vt 0.6340 0.3061 0.0000
vt 0.1266 0.1732 0.0000
vt 0.1033 0.1941 0.0000
vt 0.6566 0.0796 0.0000
vt 0.6384 0.1080 0.0000
vt 0.6324 0.5193 0.0000
vt 0.6025 0.5187 0.0000
vt 0.2471 0.2689 0.0000
vt 0.2324 0.2821 0.0000
vt 0.7759 0.1785 0.0000
vt 0.7654 0.1970 0.0000
vt 0.6041 0.6815 0.0000
vt 0.5854 0.6791 0.0000
vt 0.3313 0.3749 0.0000
vt 0.3190 0.3796 0.0000
vt 0.8913 0.2410 0.0000
vt 0.8902 0.2552 0.0000
vt 0.5688 0.8181 0.0000
vt 0.5664 0.8124 0.0000
vt 0.9118 0.2423 0.0000
vt 0.9157 0.2534 0.0000
vt 0.5512 0.8035 0.0000
vt 0.5486 0.8003 0.0000
vt 0.0804 0.5465 0.0000
vt 0.0814 0.5563 0.0000
vt 0.0020 0.6082 0.0000
vt 0.6632 0.4005 0.0000
vt 0.6717 0.3944 0.0000
vt 0.7112 0.4824 0.0000
vt 0.5570 0.8957 0.0000
vt 0.5660 0.8929 0.0000
vt 0.5532 0.9966 0.0000
vt 0.1459 0.4908 0.0000
vt 0.1404 0.4808 0.0000
vt 0.6484 0.3098 0.0000
vt 0.6604 0.3061 0.0000
vt 0.3913 0.4559 0.0000
vt 0.3851 0.4583 0.0000
vt 0.9980 0.2902 0.0000
vt 0.9852 0.2918 0.0000
vt 0.9139 0.2420 0.0000
vt 0.9973 0.2845 0.0000
vt 0.4654 0.7873 0.0000
vt 0.4569 0.7797 0.0000
vt 0.0059 0.6752 0.0000
vt 0.0020 0.6697 0.0000
vt 0.0298 0.6226 0.0000
vt 0.7016 0.4968 0.0000
vt 0.6974 0.5088 0.0000
vt 0.6484 0.5093 0.0000
vt 0.1661 0.5244 0.0000
vt 0.1603 0.5246 0.0000
vt 0.1886 0.4808 0.0000
vt 0.3924 0.4665 0.0000
vt 0.4425 0.4521 0.0000
# 66 texture coords

g Bush
usemtl _BushBush
s 1
f 1/1/1 2/2/1 3/3/1 4/4/1 
s 4
f 1/5/2 4/6/3 5/7/3 6/8/2 
s 2
f 2/9/4 6/10/4 5/11/4 3/12/4 
s off
f 1/1/5 7/13/5 8/14/5 2/2/5 
f 1/5/6 6/8/6 9/15/6 7/16/6 
f 2/9/7 8/17/7 9/18/7 6/10/7 
f 7/13/8 10/19/8 11/20/8 8/14/8 
f 7/16/9 9/15/9 12/21/9 10/22/9 
f 9/18/10 8/17/10 11/23/10 12/24/10 
f 10/19/11 13/25/11 14/26/11 11/20/11 
f 10/22/12 12/21/12 15/27/12 13/28/12 
f 12/24/13 11/23/13 14/29/13 15/30/13 
f 16/31/14 17/32/14 13/28/14 15/27/14 
f 18/33/15 16/34/15 15/30/15 14/29/15 
f 19/35/16 20/36/16 21/37/16 
f 20/38/17 22/39/17 21/40/17 
f 22/41/18 19/42/18 21/43/18 
f 17/44/19 20/36/19 19/35/19 18/45/19 
f 22/39/20 20/38/20 17/46/20 16/47/20 
f 19/42/21 22/41/21 16/34/21 18/33/21 
f 13/25/22 23/48/22 24/49/22 14/26/22 
f 17/32/23 25/50/23 23/51/23 13/28/23 
f 17/32/24 18/52/24 26/53/24 25/50/24 
f 18/33/25 14/29/25 24/54/25 26/55/25 
f 24/56/26 23/57/26 27/58/26 
f 23/59/27 25/60/27 27/61/27 
f 25/62/28 26/63/28 27/64/28 
f 26/65/29 24/49/29 27/66/29 
s 1
f 28/1/30 29/2/30 30/3/30 31/4/30 
s 4
f 28/5/31 31/6/31 32/7/31 33/8/31 
s 2
f 29/9/32 33/10/32 32/11/32 30/12/32 
s off
f 28/1/33 34/13/33 35/14/33 29/2/33 
f 28/5/34 33/8/34 36/15/34 34/16/34 
f 29/9/35 35/17/35 36/18/35 33/10/35 
f 34/13/36 37/19/36 38/20/36 35/14/36 
f 34/16/37 36/15/37 39/21/37 37/22/37 
f 36/18/38 35/17/38 38/23/38 39/24/38 
f 37/19/39 40/25/39 41/26/39 38/20/39 
f 37/22/40 39/21/40 42/27/40 40/28/40 
f 39/24/41 38/23/41 41/29/41 42/30/41 
f 43/31/42 44/32/42 40/28/42 42/27/42 
f 45/33/43 43/34/43 42/30/43 41/29/43 
f 46/35/44 47/36/44 48/37/44 
f 47/38/45 49/39/45 48/40/45 
f 49/41/46 46/42/46 48/43/46 
f 44/44/47 47/36/47 46/35/47 45/45/47 
f 49/39/48 47/38/48 44/46/48 43/47/48 
f 46/42/49 49/41/49 43/34/49 45/33/49 
f 40/25/50 50/48/50 51/49/50 41/26/50 
f 44/32/51 52/50/51 50/51/51 40/28/51 
f 44/32/52 45/52/52 53/53/52 52/50/52 
f 45/33/53 41/29/53 51/54/53 53/55/53 
f 51/56/54 50/57/54 54/58/54 
f 50/59/55 52/60/55 54/61/55 
f 52/62/56 53/63/56 54/64/56 
f 53/65/57 51/49/57 54/66/57 
s 1
f 55/1/58 56/2/58 57/3/58 58/4/58 
s 4
f 55/5/59 58/6/59 59/7/59 60/8/59 
s 2
f 56/9/60 60/10/60 59/11/60 57/12/60 
s off
f 55/1/61 61/13/61 62/14/61 56/2/61 
f 55/5/62 60/8/62 63/15/62 61/16/62 
f 56/9/63 62/17/63 63/18/63 60/10/63 
f 61/13/64 64/19/64 65/20/64 62/14/64 
f 61/16/65 63/15/65 66/21/65 64/22/65 
f 63/18/66 62/17/66 65/23/66 66/24/66 
f 64/19/67 67/25/67 68/26/67 65/20/67 
f 64/22/68 66/21/68 69/27/68 67/28/68 
f 66/24/69 65/23/69 68/29/69 69/30/69 
f 70/31/70 71/32/70 67/28/70 69/27/70 
f 72/33/71 70/34/71 69/30/71 68/29/71 
f 73/35/72 74/36/72 75/37/72 
f 74/38/73 76/39/73 75/40/73 
f 76/41/74 73/42/74 75/43/74 
f 71/44/75 74/36/75 73/35/75 72/45/75 
f 76/39/76 74/38/76 71/46/76 70/47/76 
f 73/42/77 76/41/77 70/34/77 72/33/77 
f 67/25/78 77/48/78 78/49/78 68/26/78 
f 71/32/79 79/50/79 77/51/79 67/28/79 
f 71/32/80 72/52/80 80/53/80 79/50/80 
f 72/33/81 68/29/81 78/54/81 80/55/81 
f 78/56/82 77/57/82 81/58/82 
f 77/59/83 79/60/83 81/61/83 
f 79/62/84 80/63/84 81/64/84 
f 80/65/85 78/49/85 81/66/85 
s 1
f 82/1/86 83/2/86 84/3/86 85/4/86 
s 4
f 82/5/87 85/6/87 86/7/87 87/8/87 
s 2
f 83/9/88 87/10/88 86/11/88 84/12/88 
s off
f 82/1/89 88/13/89 89/14/89 83/2/89 
f 82/5/90 87/8/90 90/15/90 88/16/90 
f 83/9/91 89/17/91 90/18/91 87/10/91 
f 88/13/92 91/19/92 92/20/92 89/14/92 
f 88/16/93 90/15/93 93/21/93 91/22/93 
f 90/18/94 89/17/94 92/23/94 93/24/94 
f 91/19/95 94/25/95 95/26/95 92/20/95 
f 91/22/96 93/21/96 96/27/96 94/28/96 
f 93/24/97 92/23/97 95/29/97 96/30/97 
f 97/31/98 98/32/98 94/28/98 96/27/98 
f 99/33/99 97/34/99 96/30/99 95/29/99 
f 100/35/100 101/36/100 102/37/100 
f 101/38/101 103/39/101 102/40/101 
f 103/41/102 100/42/102 102/43/102 
f 98/44/103 101/36/103 100/35/103 99/45/103 
f 103/39/104 101/38/104 98/46/104 97/47/104 
f 100/42/105 103/41/105 97/34/105 99/33/105 
f 94/25/106 104/48/106 105/49/106 95/26/106 
f 98/32/107 106/50/107 104/51/107 94/28/107 
f 98/32/108 99/52/108 107/53/108 106/50/108 
f 99/33/109 95/29/109 105/54/109 107/55/109 
f 105/56/110 104/57/110 108/58/110 
f 104/59/111 106/60/111 108/61/111 
f 106/62/112 107/63/112 108/64/112 
f 107/65/113 105/49/113 108/66/113 
s 1
f 109/1/114 110/2/114 111/3/114 112/4/114 
s 4
f 109/5/115 112/6/115 113/7/115 114/8/115 
s 2
f 110/9/116 114/10/116 113/11/116 111/12/116 
s off
f 109/1/117 115/13/117 116/14/117 110/2/117 
f 109/5/118 114/8/118 117/15/118 115/16/118 
f 110/9/119 116/17/119 117/18/119 114/10/119 
f 115/13/120 118/19/120 119/20/120 116/14/120 
f 115/16/121 117/15/121 120/21/121 118/22/121 
f 117/18/122 116/17/122 119/23/122 120/24/122 
f 118/19/123 121/25/123 122/26/123 119/20/123 
f 118/22/124 120/21/124 123/27/124 121/28/124 
f 120/24/125 119/23/125 122/29/125 123/30/125 
f 124/31/126 125/32/126 121/28/126 123/27/126 
f 126/33/127 124/34/127 123/30/127 122/29/127 
f 127/35/128 128/36/128 129/37/128 
f 128/38/129 130/39/129 129/40/129 
f 130/41/130 127/42/130 129/43/130 
f 125/44/131 128/36/131 127/35/131 126/45/131 
f 130/39/132 128/38/132 125/46/132 124/47/132 
f 127/42/133 130/41/133 124/34/133 126/33/133 
f 121/25/134 131/48/134 132/49/134 122/26/134 
f 125/32/135 133/50/135 131/51/135 121/28/135 
f 125/32/136 126/52/136 134/53/136 133/50/136 
f 126/33/137 122/29/137 132/54/137 134/55/137 
f 132/56/138 131/57/138 135/58/138 
f 131/59/139 133/60/139 135/61/139 
f 133/62/140 134/63/140 135/64/140 
f 134/65/141 132/49/141 135/66/141 
# 105 polygons - 35 triangles

